<?xml version="1.0" encoding="UTF-8"?>
<!DOCTYPE svg PUBLIC "-//W3C//DTD SVG 1.1//EN" "http://www.w3.org/Graphics/SVG/1.1/DTD/svg11.dtd">
<!-- Creator: CorelDRAW -->
<svg xmlns="http://www.w3.org/2000/svg" xml:space="preserve" width="11in" height="8.5in" style="shape-rendering:geometricPrecision; text-rendering:geometricPrecision; image-rendering:optimizeQuality; fill-rule:evenodd; clip-rule:evenodd"
viewBox="0 0 11 8.5">
 <defs>
  <style type="text/css">
   <![CDATA[
    .str1 {stroke:#1F1A17;stroke-width:0.003}
    .str0 {stroke:#28166F;stroke-width:0.003}
    .fil2 {fill:none}
    .fil5 {fill:#1F1A17;fill-rule:nonzero}
    .fil1 {fill:white;fill-rule:nonzero}
    .fil4 {fill:url(#id3)}
    .fil0 {fill:url(#id4)}
    .fil3 {fill:url(#id5)}
   ]]>
  </style>
   <clipPath id="id0">
    <path d="M1.73075 2.57899l1.10134 -0.31937 0.26615 0.917783 -1.10135 0.319374 -0.266146 -0.917787z"/>
   </clipPath>
   <clipPath id="id1">
    <path d="M3.19728 2.39554l1.14672 0 0 0.955598 -1.14672 0 0 -0.955598z"/>
   </clipPath>
   <clipPath id="id2">
    <path d="M4.40811 2.64576l1.05687 -0.444953 0.370795 0.880724 -1.05687 0.444961 -0.370799 -0.880732z"/>
   </clipPath>
  <linearGradient id="id3" gradientUnits="userSpaceOnUse" x1="5.12194" y1="3.5265" x2="5.12194" y2="2.20081">
   <stop offset="0" style="stop-color:#0A0B0C"/>
   <stop offset="1" style="stop-color:#00923F"/>
  </linearGradient>
  <linearGradient id="id4" gradientUnits="userSpaceOnUse" x1="2.4145" y1="3.49678" x2="2.4145" y2="2.25962">
   <stop offset="0" style="stop-color:#0A0B0C"/>
   <stop offset="1" style="stop-color:#28166F"/>
  </linearGradient>
  <linearGradient id="id5" gradientUnits="userSpaceOnUse" x1="3.77064" y1="3.35114" x2="3.77064" y2="2.39554">
   <stop offset="0" style="stop-color:#0A0B0C"/>
   <stop offset="1" style="stop-color:#DA251D"/>
  </linearGradient>
 </defs>
 <g id="Layer_x0020_1">
  <metadata id="CorelCorpID_0Corel-Layer"/>
  <polygon class="fil0" points="1.73075,2.57899 2.83209,2.25962 3.09824,3.1774 1.9969,3.49678 "/>
  <g style="clip-path:url(#id0)">
   <g id="_204666616">
    <path id="_204474696" class="fil1" d="M2.42156 3.08096l-0.192268 -0.327701 0.111882 0.383169c0.00611417,0.0212638 0.00603937,0.0385118 -0.000255906,0.0518661 -0.0064252,0.0133543 -0.0174449,0.0224134 -0.0330512,0.0268976 -0.0152126,0.0045 -0.0290866,0.00279134 -0.0417795,-0.00485039 -0.0125433,-0.00764173 -0.0220236,-0.0222992 -0.0282795,-0.0437008l-0.128213 -0.439291c-0.0070748,-0.0242283 -0.00551181,-0.0424213 0.00455118,-0.0545748 0.0102008,-0.0121535 0.025937,-0.0213583 0.0474685,-0.027622l0.0348622 -0.0100669c0.0208622,-0.00612992 0.0366181,-0.00873228 0.0472559,-0.00769291 0.0105118,0.00104724 0.0195551,0.00574016 0.0269882,0.0143386 0.00743307,0.00846063 0.017311,0.0229803 0.0295,0.0435591l0.169488 0.280484 -0.00812598 -0.327579c-0.000740157,-0.0239764 -0.000251969,-0.0414921 0.00146457,-0.0526732 0.0017126,-0.0111929 0.00667717,-0.0199567 0.0150039,-0.0265866 0.00833465,-0.00649213 0.0229961,-0.0128583 0.044,-0.0189882l0.0348583 -0.0100709c0.0213937,-0.00626378 0.0397087,-0.00712205 0.0548189,-0.0023189 0.0150984,0.00480315 0.026185,0.0193189 0.0332598,0.0435394l0.128209 0.439303c0.00612598,0.0211339 0.00604724,0.0385079 -0.000248031,0.0518622 -0.0064252,0.0133543 -0.0175748,0.0222717 -0.0334567,0.0269094 -0.014937,0.00435039 -0.0286811,0.00264173 -0.041374,-0.0051378 -0.0126811,-0.00777165 -0.0221575,-0.0222874 -0.0282835,-0.0435512l-0.111874 -0.383181 0.0142008 0.379697c0.000889764,0.0246496 0.0010748,0.0428386 0.000566929,0.0546929 -0.0005,0.0117126 -0.00437402,0.0234528 -0.0116142,0.0351929 -0.00737008,0.0117362 -0.0196063,0.020126 -0.0371024,0.0251614 -0.0130591,0.00394488 -0.0250472,0.00425197 -0.0358228,0.00132283 -0.0106535,-0.0030748 -0.0198307,-0.00829528 -0.0275276,-0.0156811 -0.00757087,-0.00738583 -0.0144646,-0.0159843 -0.0204252,-0.0258031 -0.00608268,-0.00994488 -0.0123189,-0.0201654 -0.0186772,-0.0309252z"/>
   </g>
  </g>
  <polygon class="fil2 str0" points="1.73075,2.57899 2.83209,2.25962 3.09824,3.1774 1.9969,3.49678 "/>
  <polygon class="fil3" points="3.19728,2.39554 4.344,2.39554 4.344,3.35114 3.19728,3.35114 "/>
  <g style="clip-path:url(#id1)">
   <g id="_59896616">
    <path id="_205086216" class="fil1" d="M3.92474 3.09702l-0.0276181 -0.0726063 -0.235193 0 -0.0276181 0.0742205c-0.0109094,0.0289606 -0.0200748,0.0484921 -0.027752,0.0586024 -0.00753937,0.0100984 -0.0200748,0.0152165 -0.0374488,0.0152165 -0.0146811,0 -0.027748,-0.00538583 -0.039063,-0.0161614 -0.011311,-0.0107756 -0.0169724,-0.0230354 -0.0169724,-0.0367795 0,-0.00781102 0.00134646,-0.0160276 0.00390551,-0.0243819 0.00269291,-0.00848819 0.00700787,-0.0202008 0.0130669,-0.0351575l0.148043 -0.375693c0.0041811,-0.0107795 0.00929528,-0.0237047 0.0152244,-0.0387953 0.00592913,-0.0152165 0.012122,-0.027752 0.0188543,-0.0377165 0.00674016,-0.0099685 0.015626,-0.0180512 0.0265354,-0.024248 0.0109134,-0.00619685 0.0243819,-0.00929921 0.0404094,-0.00929921 0.0163071,0 0.0299094,0.00310236 0.0408189,0.00929921 0.0109134,0.00619685 0.0197992,0.0141457 0.0265394,0.0238465 0.00659449,0.00969685 0.0122559,0.0202008 0.0169724,0.0313858 0.00458268,0.0111811 0.010378,0.0261299 0.0175079,0.0447244l0.151142 0.373402c0.0118543,0.0284213 0.0177835,0.0490276 0.0177835,0.0619646 0,0.0133346 -0.00566142,0.0255945 -0.0168386,0.0367717 -0.0111772,0.0111772 -0.0246496,0.0168386 -0.0404094,0.0168386 -0.00916142,0 -0.0171063,-0.00161417 -0.0237126,-0.00498425 -0.00659449,-0.00323622 -0.012122,-0.00767323 -0.0165709,-0.0133346 -0.00443701,-0.00566142 -0.0092874,-0.0144134 -0.0144055,-0.0261378 -0.00512598,-0.0117126 -0.00956299,-0.0219567 -0.0132008,-0.0309764zm-0.232102 -0.160575l0.172965 0 -0.0872913 -0.238697 -0.0856732 0.238697z"/>
   </g>
  </g>
  <polygon class="fil2" points="3.19728,2.39554 4.344,2.39554 4.344,3.35114 3.19728,3.35114 "/>
  <polygon class="fil4" points="4.40811,2.64576 5.46498,2.20081 5.83578,3.08154 4.77891,3.5265 "/>
  <g style="clip-path:url(#id2)">
   <g id="_204666496">
    <path id="_204461736" class="fil1" d="M4.94819 2.6901l0.0637992 0.152949 0.233465 -0.097248 -0.0638031 -0.152945c-0.00909449,-0.0218465 -0.0110669,-0.0403031 -0.00576772,-0.055378 0.00529528,-0.0150709 0.0159724,-0.0258228 0.0320197,-0.0325079 0.016185,-0.00682283 0.0316732,-0.00691339 0.0462047,-0.000267717 0.0145276,0.00650787 0.0264764,0.0209606 0.0357087,0.0429449l0.175362 0.420799c0.00923228,0.0219843 0.0110591,0.0407087 0.0053622,0.0559173 -0.00556693,0.015063 -0.0165157,0.0260866 -0.0324252,0.0327717 -0.0163189,0.00668504 -0.0316772,0.0066378 -0.0459291,-0.000401575 -0.0144055,-0.00705118 -0.0260748,-0.0213622 -0.0351772,-0.0433504l-0.0749016 -0.179512 -0.233465 0.097248 0.0749134 0.17965c0.00922441,0.0221142 0.0110591,0.0407126 0.00535039,0.0559173 -0.00556693,0.0152087 -0.0165079,0.0260787 -0.0324252,0.0327717 -0.0163189,0.00682677 -0.0316693,0.00677559 -0.045937,-0.000267717 -0.0142559,-0.00704724 -0.026063,-0.0213622 -0.0351614,-0.0433425l-0.175362 -0.420661c-0.00909843,-0.0218583 -0.0111969,-0.0401772 -0.00616535,-0.0551181 0.00501969,-0.014937 0.0158307,-0.025815 0.0324173,-0.0327677 0.016189,-0.00669291 0.0316772,-0.00677953 0.0462047,-0.000271654 0.0145315,0.00664173 0.0264803,0.0209488 0.0357126,0.0430709z"/>
   </g>
  </g>
  <polygon class="fil2" points="4.40811,2.64576 5.46498,2.20081 5.83578,3.08154 4.77891,3.5265 "/>
  <path class="fil5" d="M6.45788 2.91268c-0.00320079,-0.017878 -0.00828346,-0.0329331 -0.0152441,-0.0455433 -0.00696457,-0.0124213 -0.015811,-0.0227717 -0.0267283,-0.0306772 -0.0107244,-0.00809449 -0.0235236,-0.0139291 -0.0382047,-0.0175039 -0.0144921,-0.00376378 -0.0310512,-0.00545669 -0.0491181,-0.00545669 -0.0513819,0 -0.0895866,0.0139252 -0.114992,0.0419685 -0.0254094,0.0280433 -0.0380157,0.0705748 -0.0380157,0.127413 0,0.0193858 0.00150394,0.0382047 0.00432677,0.0564606 0.00301181,0.0182559 0.00752756,0.0355709 0.0135512,0.0517559 0.00602362,0.016374 0.0137402,0.0312402 0.0229606,0.0447913 0.00940945,0.0137402 0.0203268,0.0254055 0.0329331,0.0350039 0.0127992,0.0097874 0.0271024,0.0175039 0.0432874,0.0229606 0.016185,0.00546063 0.034252,0.00828346 0.0540157,0.00828346 0.0188189,0 0.0350039,-0.00244882 0.0483661,-0.00752756 0.0133622,-0.0048937 0.0250315,-0.0120472 0.0346299,-0.0214567 0.0097874,-0.00940945 0.0180669,-0.0207008 0.0250315,-0.034063 0.00696457,-0.0131772 0.0133622,-0.0282323 0.0191969,-0.0449803l0.0248425 0.00545669c-0.00320079,0.016185 -0.0062126,0.0302992 -0.00884646,0.0421575 -0.00282283,0.0120433 -0.00545669,0.0222087 -0.00809055,0.0306772 -0.00244882,0.0084685 -0.00508268,0.0152441 -0.00790551,0.0207008 -0.00263386,0.00527165 -0.00545669,0.00940945 -0.00827953,0.0124213 -0.00508268,0.00470472 -0.0129882,0.00884646 -0.0237165,0.0126102 -0.0109134,0.00376378 -0.0231496,0.00677559 -0.0366969,0.00922047 -0.0135512,0.00244882 -0.0276654,0.00433071 -0.0423465,0.00583465 -0.0144921,0.0013189 -0.0280433,0.00207087 -0.0406535,0.00207087 -0.034063,0 -0.0649291,-0.0048937 -0.0925945,-0.0146772 -0.0278543,-0.0097874 -0.0515669,-0.0239055 -0.0713268,-0.0423465 -0.0197638,-0.0184449 -0.0350079,-0.0408425 -0.0459213,-0.0675669 -0.0107283,-0.0265354 -0.016185,-0.0564606 -0.016185,-0.0899606 0,-0.0374488 0.00658661,-0.0711378 0.0197598,-0.101063 0.0133622,-0.0301142 0.0314291,-0.0555197 0.0545787,-0.0764094 0.0229606,-0.0210787 0.050063,-0.0370748 0.0809252,-0.0483701 0.0310551,-0.0111024 0.0643661,-0.016748 0.099937,-0.016748 0.0118543,0 0.0235236,0.000562992 0.0350039,0.00188189 0.0114803,0.00112992 0.0222087,0.00263386 0.0325591,0.00451575 0.0101654,0.00188189 0.0193858,0.00395276 0.0278543,0.0062126 0.0084685,0.00244488 0.0154331,0.0048937 0.0210787,0.00733858 0.00414173,0.00188189 0.00715354,0.00395276 0.00922441,0.0062126 0.00188189,0.00206693 0.00300787,0.00601969 0.00338583,0.0118543 0.000188976,0.00225984 0.000377953,0.00677559 0.000377953,0.0137402 0.000185039,0.00677559 0.000185039,0.0148661 0.000374016,0.0239016 0,0.00922047 0.000188976,0.0188189 0.000377953,0.0287953 0,0.0101614 0.000188976,0.0193819 0.000562992,0.0278543l-0.0242756 0.00225591z"/>
  <path class="fil5" d="M6.66245 2.91814c-0.00169685,0.0199488 -0.00282283,0.0406496 -0.00338976,0.0622913l0.00338976 0.000566929c0.00959843,-0.0109173 0.0184409,-0.0207047 0.0263465,-0.0289843 0.00790551,-0.00827953 0.0154331,-0.0150551 0.0225827,-0.0205118 0.00696457,-0.00546063 0.0139291,-0.00941339 0.0208937,-0.0120472 0.00696063,-0.00263386 0.0141142,-0.00395276 0.0218307,-0.00395276 0.00790551,0 0.0148661,0.00112992 0.0207008,0.00357874 0.00564567,0.00263386 0.0105394,0.00583071 0.0143031,0.00978346 0.00395276,0.00414173 0.00677559,0.00884646 0.00884646,0.0139291 0.00188189,0.00526772 0.00282283,0.0105394 0.00282283,0.0159961 0,0.00545669 -0.00112992,0.0107283 -0.00320079,0.0159961 -0.00206693,0.00508268 -0.00526772,0.00959843 -0.00940945,0.0135512 -0.0041378,0.00395276 -0.00922047,0.00715354 -0.0154331,0.00959843 -0.00639764,0.00225984 -0.0137362,0.0035748 -0.0222047,0.0035748 -0.00207087,-0.00940945 -0.00640157,-0.0159961 -0.0126102,-0.0197598 -0.0062126,-0.00376378 -0.0131732,-0.00564567 -0.0208898,-0.00564567 -0.0122362,0 -0.0227756,0.00338583 -0.0319961,0.0105394 -0.00922047,0.00696457 -0.017126,0.0158071 -0.0237126,0.0269134 -0.000377953,0.0107283 -0.000566929,0.0222087 -0.000566929,0.034815l0 0.0429134c0,0.0116654 0,0.0220197 0.000188976,0.0310512 0,0.00903543 0.000188976,0.017126 0.000188976,0.0242795 0.000188976,0.00696457 0.000188976,0.0131732 0.000377953,0.0184449 0.000185039,0.00526772 0.000562992,0.00978346 0.000940945,0.0139252 0.000185039,0.0048937 0.000751969,0.00884646 0.00150394,0.0116693 0.000940945,0.00282283 0.00338583,0.00526772 0.00752756,0.00714961 0.00395276,0.00169685 0.0101654,0.00320079 0.0186339,0.00414173 0.00827953,0.00112992 0.0201378,0.00225984 0.0351929,0.0035748l-0.00997638 0.0231496c-0.00169291,-0.000188976 -0.00545669,-0.000562992 -0.0114803,-0.000940945 -0.00601969,-0.000377953 -0.0129843,-0.000562992 -0.0212638,-0.000940945 -0.00828346,-0.000188976 -0.0171299,-0.000562992 -0.0265394,-0.000751969 -0.00940945,-0.000188976 -0.0184409,-0.000188976 -0.0270984,-0.000188976 -0.0107283,0 -0.0210787,0.000188976 -0.0306772,0.000562992 -0.00959843,0.000377953 -0.0180669,0.000755906 -0.0254094,0.00112992 -0.00714961,0.000377953 -0.0131732,0.000751969 -0.017689,0.00112992 -0.00470472,0.000562992 -0.00734252,0.000940945 -0.00809449,0.00112992 0,-0.0013189 0.000377953,-0.00338976 0.000751969,-0.0062126 0.000377953,-0.00300787 0.00207087,-0.00583465 0.0048937,-0.0090315 0.0026378,-0.00320079 0.00696457,-0.0062126 0.0129882,-0.00903543 0.00601969,-0.00301181 0.0144921,-0.00526772 0.0255945,-0.00677559 0.000751969,-0.00827953 0.0013189,-0.017315 0.00150394,-0.0267244 0.000377953,-0.00922047 0.000755906,-0.0186299 0.000940945,-0.0278543 0.000188976,-0.00940945 0.000188976,-0.0182559 0.000188976,-0.0267244l0 -0.0225827c0,-0.0284173 -0.000188976,-0.0519449 -0.000562992,-0.0705748 -0.000566929,-0.0184449 -0.000940945,-0.0312441 -0.00150787,-0.0382047 -0.000374016,-0.0062126 -0.00112598,-0.0109173 -0.00206693,-0.0141181 -0.00112992,-0.00338583 -0.00320079,-0.00583465 -0.00677559,-0.00752756 -0.00338976,-0.00150394 -0.00828346,-0.00263386 -0.0148701,-0.00282283 -0.00639764,-0.000374016 -0.0152441,-0.000374016 -0.0265354,-0.000374016l0.00545669 -0.0225866c0.0127992,-0.0013189 0.0248425,-0.00301181 0.0363228,-0.00508268 0.0114803,-0.00188189 0.0220197,-0.0041378 0.0316181,-0.00620866 0.0097874,-0.00225984 0.0180669,-0.00451575 0.0252205,-0.00658661 0.00733858,-0.00207087 0.0129843,-0.00395276 0.017126,-0.00527165l0.00508268 0.0026378z"/>
  <path class="fil5" d="M6.8962 3.06644c0.000755906,0.0214528 0.00395276,0.0395197 0.00922441,0.0545787 0.00545669,0.0148661 0.0129843,0.0270984 0.0223937,0.0365079 0.00941339,0.00959843 0.0207047,0.016563 0.033878,0.0208937 0.0131732,0.00432677 0.0276654,0.00658661 0.0436614,0.00658661 0.00658661,0 0.0127992,-0.000377953 0.0188228,-0.00112992 0.00601969,-0.000751969 0.0122323,-0.00188189 0.0186299,-0.00376378 0.00640157,-0.00188189 0.0129882,-0.00433071 0.0201378,-0.00715354 0.00696457,-0.00301181 0.0148701,-0.00658661 0.0235276,-0.0111024l0.0111024 0.0182559c-0.0457323,0.0366969 -0.0914646,0.0551417 -0.137386,0.0551417 -0.016189,0 -0.032185,-0.00244488 -0.0479921,-0.00752756 -0.015811,-0.0048937 -0.0299252,-0.0129843 -0.0423465,-0.0242795 -0.0126102,-0.0112913 -0.0225827,-0.0261575 -0.0302992,-0.0444134 -0.00771654,-0.0182559 -0.0116693,-0.0408425 -0.0116693,-0.067378 0,-0.0299252 0.0048937,-0.0557087 0.0144921,-0.0777283 0.00959843,-0.0222047 0.0223937,-0.0404606 0.0380157,-0.0551417 0.0158071,-0.0144921 0.0335,-0.0254055 0.0534488,-0.0325591 0.0197598,-0.00714961 0.0398976,-0.0107283 0.0602244,-0.0107283 0.017878,0 0.032937,0.00244882 0.0451693,0.00771654 0.0122323,0.00508268 0.0220197,0.0120472 0.0293583,0.0207047 0.00734252,0.00884252 0.0126102,0.0190079 0.015811,0.0304882 0.00319685,0.0116693 0.0048937,0.0239016 0.0048937,0.0366969 0,0.00828346 -0.000566929,0.016374 -0.00188189,0.0240906 -0.00112992,0.00790551 -0.00282283,0.015622 -0.00470472,0.0235276l-0.186512 0.00771654zm0.12252 -0.0297362c0.000940945,-0.00357874 0.00150787,-0.00715354 0.00169685,-0.0105394 0.000374016,-0.00338976 0.000374016,-0.00640157 0.000374016,-0.00903543 0,-0.00940945 -0.000940945,-0.0182559 -0.00319685,-0.0265354 -0.00225984,-0.00809449 -0.00564961,-0.0154331 -0.0103543,-0.0214567 -0.00470472,-0.00601969 -0.0105394,-0.0107283 -0.017689,-0.0143031 -0.00696457,-0.0035748 -0.015622,-0.00526772 -0.0254094,-0.00526772 -0.00865748,0 -0.016937,0.00150394 -0.0250276,0.00451575 -0.00790551,0.00320079 -0.0150591,0.00827953 -0.0212677,0.0154331 -0.00640157,0.00714961 -0.0114803,0.016563 -0.0154331,0.0284173 -0.00395276,0.0116693 -0.0062126,0.0263504 -0.00677559,0.0436654l0.123083 -0.0048937z"/>
  <path class="fil5" d="M7.4514 3.20703c-0.00658661,0.0041378 -0.0141181,0.00790157 -0.0225866,0.0112913 -0.0084685,0.00338583 -0.016937,0.00620866 -0.0255945,0.00884646 -0.00865748,0.00244488 -0.016937,0.00432677 -0.0248425,0.00583465 -0.00790551,0.00150394 -0.0146811,0.00225591 -0.0201378,0.00225591 -0.00696457,0 -0.0127992,-0.00112992 -0.017689,-0.00338583 -0.00470866,-0.00207087 -0.00865748,-0.00508268 -0.0116693,-0.00865748 -0.00301181,-0.00357874 -0.00527165,-0.00752756 -0.00658661,-0.0120472 -0.0013189,-0.00451575 -0.00207087,-0.00922047 -0.00207087,-0.0139252l0 -0.016563 -0.00169291 0c-0.0190118,0.017315 -0.0374528,0.0306772 -0.0549567,0.0402756 -0.0175039,0.00940945 -0.0350039,0.0143031 -0.0525079,0.0143031 -0.0103504,0 -0.0197598,-0.00169291 -0.0282323,-0.00508268 -0.00865748,-0.00338583 -0.0158071,-0.00809055 -0.0220197,-0.0139252 -0.00601969,-0.00602362 -0.0107244,-0.0129843 -0.0141142,-0.0210787 -0.00338583,-0.00809055 -0.00508268,-0.016748 -0.00508268,-0.0261614 0,-0.0118543 0.0026378,-0.0227717 0.00790551,-0.0325591 0.00508268,-0.00959843 0.0122323,-0.0184409 0.0214567,-0.0263465 0.0090315,-0.00790551 0.0195709,-0.0150551 0.0316181,-0.0212677 0.0120433,-0.00620866 0.0248425,-0.0118543 0.0385787,-0.016748 0.0135512,-0.00508268 0.0274803,-0.00940945 0.0419724,-0.0133622 0.0144882,-0.00376378 0.0284173,-0.00734252 0.0419685,-0.0103543l0 -0.00827953c0,-0.0154331 -0.00169685,-0.0284173 -0.00508268,-0.0387677 -0.00338583,-0.0103543 -0.00809449,-0.0188228 -0.0139252,-0.0250315 -0.00602362,-0.00640157 -0.0131772,-0.0109173 -0.0212677,-0.0137402 -0.00790551,-0.00282283 -0.016752,-0.00414173 -0.0263504,-0.00414173 -0.0141142,0 -0.0250315,0.0026378 -0.0323701,0.00771654 -0.00752756,0.00508268 -0.0112913,0.0124213 -0.0112913,0.0218346 0,0.00507874 0.0013189,0.00997244 0.00376378,0.0146772 0.00244488,0.00470472 0.00658661,0.00959843 0.0122323,0.0148701 -0.00188189,0.00301181 -0.00451575,0.00601969 -0.00771654,0.00865748 -0.00319685,0.00282283 -0.00677559,0.00526772 -0.0107244,0.00733858 -0.00395276,0.00188189 -0.00809449,0.0035748 -0.0124252,0.00470472 -0.00432677,0.0013189 -0.00865354,0.00188189 -0.0129843,0.00188189 -0.00432677,0 -0.0084685,-0.000751969 -0.0122323,-0.00207087 -0.00395276,-0.00112992 -0.00733858,-0.00301181 -0.0103504,-0.00564567 -0.00282283,-0.00244488 -0.00527165,-0.00545669 -0.00696457,-0.00884646 -0.00169291,-0.0035748 -0.00263386,-0.00752756 -0.00263386,-0.0118543 0,-0.00677559 0.00225591,-0.0139291 0.00658661,-0.0212677 0.0041378,-0.00733858 0.00997244,-0.0146811 0.0175039,-0.0218307 0.00733858,-0.00715354 0.0158071,-0.0139291 0.0255945,-0.0203268 0.00997244,-0.00639764 0.0203268,-0.0120433 0.0312402,-0.016937 0.0109173,-0.0048937 0.0222087,-0.00884646 0.033689,-0.0116693 0.0116693,-0.00282283 0.0229606,-0.00414173 0.034063,-0.00414173 0.017126,0 0.0316181,0.00338976 0.0430984,0.0103504 0.0114803,0.00696457 0.0207047,0.016 0.0274803,0.0269134 0.00677165,0.0109173 0.0114803,0.0231496 0.0143031,0.0365118 0.00263386,0.0133622 0.0041378,0.0265354 0.0041378,0.0395236 0,0.00451575 -0.000188976,0.0107283 -0.000374016,0.0182559 -0.000377953,0.00771654 -0.000755906,0.0159961 -0.00112992,0.0252165 -0.000377953,0.00922441 -0.000751969,0.0186339 -0.0013189,0.0284213 -0.000562992,0.0097874 -0.000940945,0.0190079 -0.00131496,0.0278543 -0.000377953,0.00884252 -0.000755906,0.016748 -0.000940945,0.0235236 -0.000377953,0.00696457 -0.000566929,0.0120472 -0.000566929,0.015622 0,0.00601969 0.000566929,0.0111024 0.00150787,0.0148661 0.000940945,0.00395276 0.00225591,0.00696457 0.0041378,0.00903543 0.00188189,0.00225591 0.00414173,0.00376378 0.00677559,0.00470472 0.00282283,0.000940945 0.00602362,0.00150394 0.0097874,0.00150394 0.00959843,0 0.0216417,-0.00282283 0.0357598,-0.00827953l0.00658661 0.0175039zm-0.130614 -0.0523228c0.000566929,-0.0109134 0.00112992,-0.0229606 0.00169291,-0.0361339 0.000755906,-0.0131732 0.0013189,-0.0291693 0.00169685,-0.0476142 -0.0225866,0.00470472 -0.0410276,0.0097874 -0.0553307,0.0154331 -0.0144921,0.00545669 -0.0259724,0.0114803 -0.0344449,0.017689 -0.00865354,0.00640157 -0.0144882,0.0131732 -0.017878,0.0203268 -0.00319685,0.00715354 -0.0048937,0.0146811 -0.0048937,0.0225827 0,0.0075315 0.00112992,0.0139291 0.00338976,0.0191969 0.00225591,0.00527165 0.00526772,0.00941339 0.0090315,0.0127992 0.00357874,0.00338583 0.00790551,0.00564567 0.0126102,0.00714961 0.0048937,0.00150787 0.00959843,0.00225984 0.0143031,0.00225984 0.00734252,0 0.0150551,-0.00150394 0.0229606,-0.00432677 0.00790551,-0.00282283 0.0150551,-0.0062126 0.0218307,-0.00997638 0.00658661,-0.00395276 0.0122362,-0.00771654 0.016752,-0.0112913 0.00451575,-0.00376378 0.00733858,-0.00639764 0.00827953,-0.00809449z"/>
  <path class="fil5" d="M7.70698 3.18839c-0.00752756,0.00639764 -0.0154331,0.0124213 -0.0235236,0.0180669 -0.00828346,0.00564567 -0.0169409,0.0105394 -0.0263504,0.0148701 -0.00940945,0.00432677 -0.0195748,0.00771654 -0.0302992,0.0101614 -0.0109173,0.00244882 -0.0227717,0.00376378 -0.0355709,0.00376378 -0.015811,0 -0.0289843,-0.00207087 -0.0395236,-0.00639764 -0.0103504,-0.00414173 -0.0188189,-0.0111063 -0.0250315,-0.0208898 -0.00620866,-0.0097874 -0.0107244,-0.0225866 -0.0131732,-0.0382047 -0.00263386,-0.015811 -0.00395276,-0.0350079 -0.00395276,-0.0579685 0,-0.00620866 0.000188976,-0.0131732 0.000377953,-0.0212677 0.000188976,-0.00809055 0.000374016,-0.016748 0.000374016,-0.0259685 0.000188976,-0.00903543 0.000566929,-0.0182559 0.000940945,-0.0280433 0.000377953,-0.00959843 0.000755906,-0.0190079 0.00112992,-0.0282323 0.000566929,-0.00922047 0.000940945,-0.017689 0.00150787,-0.0257835 0.000374016,-0.00809055 0.000751969,-0.0152441 0.00112992,-0.0212638 -0.00602362,0.000185039 -0.0116693,0.000374016 -0.0171299,0.000562992 -0.00545669,0.000377953 -0.0103504,0.000751969 -0.0148661,0.00112992 -0.00433071,0.000188976 -0.00809449,0.000562992 -0.0111024,0.000940945 -0.00301181,0.000188976 -0.00508268,0.000374016 -0.00640157,0.000562992 0,-0.00169291 0.000377953,-0.00432677 0.00150787,-0.00771654 0.000940945,-0.00338583 0.00319685,-0.00696063 0.00677559,-0.0103504 0.00338583,-0.0035748 0.00865748,-0.00677559 0.0154291,-0.0097874 0.00677559,-0.00282283 0.016,-0.0048937 0.0274803,-0.00564567l0.00395276 -0.0442283c0.000185039,-0.00282283 0.000374016,-0.00545669 0.000562992,-0.00771654 0.000377953,-0.00225591 0.000751969,-0.0041378 0.00112992,-0.00583071 0.000562992,-0.00188189 0.00112992,-0.00338976 0.00188189,-0.00470866 0.000751969,-0.00131496 0.00169291,-0.00282283 0.00301181,-0.00432677 0.00188189,-0.00225984 0.0048937,-0.00545669 0.00922047,-0.00997638 0.00433071,-0.00432677 0.00922047,-0.0090315 0.0146811,-0.0139252 0.00564567,-0.00508268 0.0112913,-0.00997638 0.0175,-0.0148661 0.00602362,-0.00508268 0.0116693,-0.00922441 0.0169409,-0.0124252l0.00564567 0.00320079c-0.00395276,0.0374528 -0.00658661,0.0756575 -0.00827953,0.11424 0.00733858,0 0.0154291,-0.000188976 0.0246535,-0.000188976 0.0090315,-0.000188976 0.0186299,-0.000188976 0.0287953,-0.000377953 0.0101614,-0.000185039 0.0203228,-0.000374016 0.0308622,-0.000751969 0.0105394,-0.000188976 0.0207047,-0.000562992 0.0308661,-0.000940945l-0.00884646 0.0319961c-0.033685,0.00112992 -0.0634213,0.00169291 -0.0892047,0.00169291l-0.0188228 0c-0.000188976,0.00470472 -0.000374016,0.0116693 -0.000751969,0.0208898 -0.000562992,0.00922047 -0.00112992,0.0193858 -0.00150394,0.0306772 -0.000377953,0.0112913 -0.000755906,0.0231496 -0.00112992,0.0355709 -0.000377953,0.0122323 -0.000566929,0.0239016 -0.000566929,0.0346299 0,0.0208898 0.000940945,0.0383937 0.0026378,0.0521299 0.00150394,0.0137402 0.00451575,0.0248425 0.0084685,0.033126 0.0041378,0.00827953 0.00940945,0.0139252 0.016185,0.017311 0.00696457,0.00338976 0.0154331,0.0048937 0.0259724,0.0048937 0.0124213,0 0.0239016,-0.00169291 0.034815,-0.00545669 0.0107283,-0.0035748 0.0212677,-0.0084685 0.0316181,-0.0143031l0.00997638 0.017126z"/>
  <path class="fil5" d="M7.84568 2.9187c-0.00112992,0.0131732 -0.00207087,0.0267244 -0.00263386,0.0404646 -0.000755906,0.0137362 -0.00112992,0.0282283 -0.00150787,0.0434724 -0.000374016,0.0154331 -0.000562992,0.0319961 -0.000751969,0.049685 0,0.0176929 -0.000188976,0.0372638 -0.000188976,0.0585315l0 0.0184449c0,0.00658661 0.000188976,0.0131732 0.000188976,0.0195709 0.000188976,0.00640157 0.000188976,0.0124213 0.000377953,0.0178819 0.000185039,0.00545669 0.000562992,0.00959843 0.000940945,0.0127953 0.000185039,0.00470472 0.000562992,0.00847244 0.00150394,0.0112953 0.000751969,0.00282283 0.00282283,0.00507874 0.0062126,0.00677559 0.00338583,0.00169291 0.00865748,0.00319685 0.0154291,0.00432677 0.00696457,0.000940945 0.016563,0.00225984 0.0287953,0.0035748l-0.00978346 0.0231496c-0.00150787,-0.000188976 -0.00470866,-0.000562992 -0.00941339,-0.000940945 -0.00470472,-0.000377953 -0.0105394,-0.000562992 -0.0175,-0.000940945 -0.00696457,-0.000188976 -0.0144921,-0.000562992 -0.0229606,-0.000751969 -0.00828346,-0.000188976 -0.0169409,-0.000188976 -0.0257835,-0.000188976 -0.0107283,0 -0.0208937,0.000188976 -0.0304921,0.000562992 -0.00959449,0.000377953 -0.017878,0.000755906 -0.0252165,0.00112992 -0.00715354,0.000377953 -0.0129882,0.000751969 -0.0175039,0.00112992 -0.00470472,0.000562992 -0.00733858,0.000940945 -0.00827953,0.00112992 0,-0.0013189 0.000188976,-0.00338976 0.000562992,-0.0062126 0.000566929,-0.00300787 0.00207087,-0.00583465 0.0048937,-0.0090315 0.00282283,-0.00320079 0.00715354,-0.0062126 0.0131732,-0.00903543 0.00583465,-0.00301181 0.0144921,-0.00526772 0.0254094,-0.00677559 0.000751969,-0.00677559 0.00131496,-0.0141142 0.00169291,-0.0223937 0.000377953,-0.00809449 0.000562992,-0.016185 0.000751969,-0.0239016 0.000188976,-0.00790551 0.000377953,-0.0150591 0.000377953,-0.0216457l0 -0.0152441c0,-0.0214528 -0.000188976,-0.0397087 -0.000377953,-0.0547677 -0.000188976,-0.0152441 -0.000374016,-0.0276654 -0.000562992,-0.0378268 -0.000188976,-0.0101614 -0.000377953,-0.0180669 -0.000566929,-0.0240906 -0.000374016,-0.00583465 -0.000562992,-0.0101614 -0.000751969,-0.0127953 -0.000374016,-0.0062126 -0.000940945,-0.0109173 -0.00188189,-0.0141181 -0.000940945,-0.00338583 -0.00301181,-0.00583465 -0.00639764,-0.00752756 -0.00320079,-0.00150394 -0.00809449,-0.00263386 -0.0144921,-0.00282283 -0.00658661,-0.000374016 -0.0154331,-0.000374016 -0.0269134,-0.000374016l0.00564567 -0.0225866c0.0126102,-0.0013189 0.0248425,-0.00301181 0.0367008,-0.00508268 0.0118543,-0.00188189 0.0227717,-0.0041378 0.032748,-0.00620866 0.00997244,-0.00225984 0.0186299,-0.00451575 0.0263465,-0.00658661 0.00752756,-0.00207087 0.0135512,-0.00395276 0.0176929,-0.00527165l0.00451575 0.00320079zm-0.0127992 -0.133437l0 0.00659055c0,0.00884252 0.00112992,0.016937 0.00320079,0.0242756 0.00207087,0.00733858 0.00639764,0.0143031 0.0127992,0.0210787 -0.00470866,0.00771654 -0.0112953,0.0133622 -0.0197638,0.017315 -0.0084685,0.00376378 -0.017126,0.00583465 -0.0259724,0.00583465 -0.00526772,0 -0.0105394,-0.000940945 -0.0154331,-0.00244882 -0.00488976,-0.00150394 -0.00940945,-0.00394882 -0.0131732,-0.00714961 -0.00395276,-0.00320079 -0.00696457,-0.00733858 -0.00922047,-0.0122323 -0.00244882,-0.0048937 -0.0035748,-0.0109173 -0.0035748,-0.0178819 0,-0.00394882 0.000562992,-0.00827953 0.00131496,-0.0131732 0.000751969,-0.0048937 0.00207087,-0.00940945 0.00376378,-0.0139252l0.0649291 -0.00997638 0.00112992 0.00169291z"/>
  <path class="fil5" d="M7.9027 2.92642c0.0013189,0.000188976 0.00414173,0.000377953 0.00847244,0.000751969 0.00451575,0.000188976 0.00997244,0.000566929 0.0165591,0.000566929 0.00658661,0.000185039 0.0141142,0.000374016 0.0223976,0.000562992 0.0084685,0.000188976 0.017126,0.000377953 0.0261575,0.000377953 0.00828346,0 0.015248,-0.000188976 0.0207047,-0.000377953 0.00564567,-0.000188976 0.0103504,-0.000377953 0.0143031,-0.000751969 0.00451575,0.0114803 0.00997244,0.0252165 0.016185,0.0414016 0.00620866,0.016189 0.0129843,0.033689 0.0199488,0.0525118 0.00696457,0.0188189 0.0141142,0.0385787 0.0216457,0.0592835 0.00733858,0.0208898 0.0146772,0.0415906 0.0216417,0.0624803l0.00207087 0c0.0109134,-0.0239016 0.0207008,-0.0461063 0.0293583,-0.0664331 0.00884646,-0.0203268 0.016185,-0.0380197 0.0222087,-0.0532638 0.00620866,-0.0152441 0.0107283,-0.0278504 0.0141142,-0.0374488 0.00338976,-0.0097874 0.0048937,-0.016 0.0048937,-0.0188228 0,-0.00470472 -0.00432677,-0.00827953 -0.0129843,-0.0105394 -0.00884646,-0.00207087 -0.0208937,-0.00376378 -0.0365118,-0.0048937l0.00658661 -0.0231457c0.00131496,0.000185039 0.00432677,0.000374016 0.0090315,0.000562992 0.00451969,0.000188976 0.0101654,0.000377953 0.016374,0.000562992 0.00640157,0.000188976 0.0131772,0.000188976 0.0201378,0.000377953 0.00715354,0 0.0137402,0.000188976 0.0201378,0.000188976 0.0105394,0 0.0199488,-0.000188976 0.0282323,-0.000566929 0.00809055,-0.000185039 0.0152441,-0.000562992 0.0216417,-0.000940945 0.0062126,-0.000374016 0.0114803,-0.000751969 0.0159961,-0.00112598 0.00451969,-0.000566929 0.00847244,-0.000940945 0.0118583,-0.0013189 0,0.00414173 -0.000940945,0.00771654 -0.00263386,0.0112913 -0.00188189,0.00338976 -0.00470472,0.00639764 -0.00884646,0.00922047 -0.00414173,0.0026378 -0.00959843,0.00508268 -0.016374,0.00696457 -0.00658661,0.00188189 -0.0150551,0.00338976 -0.0252205,0.00451575 -0.0035748,0.0062126 -0.0084685,0.0154331 -0.0144882,0.0274803 -0.00583465,0.0120433 -0.0124213,0.0257835 -0.0197638,0.0414016 -0.00733858,0.015622 -0.0148661,0.032374 -0.0229606,0.0504409 -0.00809055,0.017878 -0.016185,0.0357559 -0.0239016,0.0534488 -0.00790551,0.017689 -0.0152441,0.0348189 -0.0223937,0.051189 -0.00715354,0.016189 -0.0135512,0.0308661 -0.0188228,0.0434764 -0.00714961,0.000940945 -0.0139252,0.00207087 -0.0201378,0.00338583 -0.00620866,0.00112992 -0.0124213,0.0026378 -0.0184409,0.00433071 -0.00508268,-0.016937 -0.0107283,-0.034252 -0.016752,-0.0517559 -0.00583465,-0.017689 -0.0120433,-0.0350039 -0.0180669,-0.0521339 -0.0062126,-0.017126 -0.0124213,-0.033685 -0.0184449,-0.049685 -0.00601969,-0.0159961 -0.0118543,-0.0306772 -0.017126,-0.0440394 -0.00545669,-0.0135472 -0.0105394,-0.0252165 -0.0148661,-0.0355669 -0.00451969,-0.0101654 -0.00828346,-0.0180709 -0.0112953,-0.0237165 -0.00282283,-0.00545669 -0.00601969,-0.00959843 -0.0090315,-0.0127953 -0.00320079,-0.00301181 -0.00677559,-0.00546063 -0.0111024,-0.00715354 -0.00414173,-0.00188189 -0.00922441,-0.00319685 -0.015248,-0.00395276 -0.00601969,-0.000751969 -0.0133622,-0.00169291 -0.0218307,-0.00263386l0.00658661 -0.0237126z"/>
  <path class="fil5" d="M8.3382 3.06644c0.000755906,0.0214528 0.00395276,0.0395197 0.00922441,0.0545787 0.00545669,0.0148661 0.0129843,0.0270984 0.0223937,0.0365079 0.00941339,0.00959843 0.0207047,0.016563 0.033878,0.0208937 0.0131732,0.00432677 0.0276654,0.00658661 0.0436614,0.00658661 0.00658661,0 0.0127992,-0.000377953 0.0188228,-0.00112992 0.00601969,-0.000751969 0.0122323,-0.00188189 0.0186299,-0.00376378 0.00640157,-0.00188189 0.0129882,-0.00433071 0.0201378,-0.00715354 0.00696457,-0.00301181 0.0148701,-0.00658661 0.0235276,-0.0111024l0.0111024 0.0182559c-0.0457323,0.0366969 -0.0914646,0.0551417 -0.137386,0.0551417 -0.016189,0 -0.032185,-0.00244488 -0.0479921,-0.00752756 -0.015811,-0.0048937 -0.0299252,-0.0129843 -0.0423465,-0.0242795 -0.0126102,-0.0112913 -0.0225827,-0.0261575 -0.0302992,-0.0444134 -0.00771654,-0.0182559 -0.0116693,-0.0408425 -0.0116693,-0.067378 0,-0.0299252 0.0048937,-0.0557087 0.0144921,-0.0777283 0.00959843,-0.0222047 0.0223937,-0.0404606 0.0380157,-0.0551417 0.0158071,-0.0144921 0.0335,-0.0254055 0.0534488,-0.0325591 0.0197598,-0.00714961 0.0398976,-0.0107283 0.0602244,-0.0107283 0.017878,0 0.032937,0.00244882 0.0451693,0.00771654 0.0122323,0.00508268 0.0220197,0.0120472 0.0293583,0.0207047 0.00734252,0.00884252 0.0126102,0.0190079 0.015811,0.0304882 0.00319685,0.0116693 0.0048937,0.0239016 0.0048937,0.0366969 0,0.00828346 -0.000566929,0.016374 -0.00188189,0.0240906 -0.00112992,0.00790551 -0.00282283,0.015622 -0.00470472,0.0235276l-0.186512 0.00771654zm0.12252 -0.0297362c0.000940945,-0.00357874 0.00150787,-0.00715354 0.00169685,-0.0105394 0.000374016,-0.00338976 0.000374016,-0.00640157 0.000374016,-0.00903543 0,-0.00940945 -0.000940945,-0.0182559 -0.00319685,-0.0265354 -0.00225984,-0.00809449 -0.00564961,-0.0154331 -0.0103543,-0.0214567 -0.00470472,-0.00601969 -0.0105394,-0.0107283 -0.017689,-0.0143031 -0.00696457,-0.0035748 -0.015622,-0.00526772 -0.0254094,-0.00526772 -0.00865748,0 -0.016937,0.00150394 -0.0250276,0.00451575 -0.00790551,0.00320079 -0.0150591,0.00827953 -0.0212677,0.0154331 -0.00640157,0.00714961 -0.0114803,0.016563 -0.0154331,0.0284173 -0.00395276,0.0116693 -0.0062126,0.0263504 -0.00677559,0.0436654l0.123083 -0.0048937z"/>
  <path class="fil5" d="M8.61712 3.12667c0.0013189,0.0144921 0.00470866,0.0267244 0.00997638,0.0366969 0.00545669,0.00997638 0.0118583,0.0182559 0.0195748,0.0246575 0.00771654,0.00620866 0.016185,0.0109134 0.0254055,0.0137362 0.00922047,0.00282283 0.0184449,0.00433071 0.0274764,0.00433071 0.00752756,0 0.0141181,-0.000940945 0.0203268,-0.0026378 0.0062126,-0.00188189 0.0114803,-0.00432677 0.015811,-0.00771654 0.00451575,-0.00319685 0.00790157,-0.00733858 0.0103504,-0.0122323 0.00225591,-0.0048937 0.0035748,-0.0105394 0.0035748,-0.016937 0,-0.00790551 -0.00188189,-0.0146811 -0.00564567,-0.0205157 -0.0035748,-0.00583465 -0.00865748,-0.0111024 -0.0150551,-0.0158071 -0.0062126,-0.00451575 -0.0137402,-0.00884646 -0.0220197,-0.0127992 -0.00847244,-0.00395276 -0.0175039,-0.00809055 -0.0269134,-0.0124213 -0.0111063,-0.00451575 -0.0222087,-0.00940945 -0.033311,-0.0144921 -0.0109173,-0.00526772 -0.0208937,-0.0112913 -0.0297362,-0.0180669 -0.00884646,-0.00696063 -0.016,-0.0150551 -0.0214567,-0.0246535 -0.00526772,-0.00940945 -0.00809055,-0.0208898 -0.00809055,-0.0344409 0,-0.0148661 0.00338583,-0.0284173 0.0101614,-0.0404646 0.00658661,-0.0120433 0.015622,-0.0223937 0.0269134,-0.0308622 0.0112913,-0.00847244 0.0244646,-0.0150591 0.0395197,-0.0197638 0.0148701,-0.00451575 0.0308661,-0.00677559 0.0474291,-0.00677559 0.0141142,0 0.0267244,0.00150787 0.0382047,0.00470472 0.0114803,0.00320079 0.0214567,0.0075315 0.0295472,0.0127992 0.00827953,0.00545669 0.0144921,0.0114803 0.0188189,0.0184449 0.00451969,0.00677559 0.00677559,0.0139252 0.00677559,0.0212677 0,0.00545669 -0.00112598,0.00997244 -0.00338583,0.0137362 -0.00225984,0.00376378 -0.00508268,0.00677559 -0.00884646,0.00922441 -0.0035748,0.00244488 -0.00790551,0.0041378 -0.0126102,0.00526772 -0.00451575,0.00112992 -0.00940945,0.00150394 -0.0143031,0.00150394 -0.00188189,0 -0.00395276,0 -0.00639764,-0.000185039 -0.00244488,-0.000188976 -0.00451575,-0.000377953 -0.00639764,-0.000755906 -0.00470472,-0.017878 -0.0120472,-0.0316181 -0.0218346,-0.0412165 -0.00959843,-0.00978346 -0.0227717,-0.0144882 -0.0393307,-0.0144882 -0.0144921,0 -0.0259724,0.00338583 -0.0342559,0.0103504 -0.0084685,0.00677559 -0.0126063,0.016185 -0.0126063,0.0282283 0,0.00771654 0.00188189,0.0144921 0.00545669,0.0203268 0.00376378,0.00583465 0.00884646,0.0112913 0.0154331,0.0159961 0.00658661,0.0048937 0.0146772,0.00941339 0.0240906,0.0137402 0.00940945,0.00432677 0.0197598,0.00865748 0.0310512,0.0133622 0.0109173,0.00470472 0.0216417,0.0097874 0.0325591,0.0150551 0.0109173,0.00508268 0.0205157,0.0112953 0.0291732,0.0184449 0.00865748,0.00696457 0.0158071,0.0152441 0.0210787,0.0248425 0.00545669,0.00959843 0.00827953,0.0210787 0.00827953,0.034252 0,0.0141181 -0.00320079,0.0269134 -0.00940945,0.0385827 -0.0062126,0.0116693 -0.0150591,0.0214567 -0.0267244,0.0299252 -0.0114803,0.00827953 -0.0252205,0.0148661 -0.0414055,0.0193819 -0.016185,0.00470866 -0.034063,0.00696457 -0.0538268,0.00696457 -0.0103504,0 -0.0208898,-0.000751969 -0.0314291,-0.00225591 -0.0103504,-0.00150787 -0.0197598,-0.00376772 -0.0282283,-0.00696457 -0.00828346,-0.00301181 -0.0150591,-0.00715354 -0.0201378,-0.0122323 -0.00527165,-0.00527165 -0.00771654,-0.0114803 -0.00771654,-0.0188228 0,-0.000940945 0,-0.00282283 0,-0.00545669 0.000185039,-0.00282283 0.000374016,-0.00677559 0.000751969,-0.0122323 0.000188976,-0.00527165 0.000374016,-0.0120472 0.000751969,-0.0201378 0.000377953,-0.00809449 0.000940945,-0.0178819 0.00169291,-0.0293622l0.0208898 -0.00112598z"/>
  <path class="fil5" d="M0.395406 1.64129l0 -0.513209c0,-0.0192087 0,-0.0359094 0,-0.0501102 -0.000417323,-0.0137795 -0.000417323,-0.0263071 -0.000834646,-0.0375787 -0.0246378,0.00333858 -0.0492756,0.00709843 -0.0739134,0.0108543 -0.0246378,0.00375984 -0.048437,0.00793307 -0.0718228,0.0125276l0.0146142 -0.0613819c0.0267244,-0.00626378 0.0567913,-0.0125276 0.0910354,-0.018374 0.0342402,-0.00584646 0.0701535,-0.0112756 0.106898,-0.0154528 0.036748,-0.00417323 0.0739134,-0.00751575 0.110661,-0.0100197 0.036748,-0.00250787 0.0718228,-0.00375984 0.104394,-0.00375984 0.0283976,0 0.057626,0.00125197 0.0872756,0.00417717 0.0300669,0.00250394 0.058878,0.00709843 0.0868583,0.0137795 0.0275591,0.0066811 0.0538661,0.0162835 0.0789213,0.0283937 0.0246378,0.0125276 0.045937,0.0283976 0.0647283,0.0476063 0.018374,0.0192087 0.0329882,0.0425945 0.0438465,0.0697362 0.010437,0.0271417 0.0158661,0.0592953 0.0158661,0.0964606 0,0.0405079 -0.0066811,0.077252 -0.019626,0.109823 -0.0129449,0.0321575 -0.0313189,0.0609685 -0.0542874,0.0856063 -0.0229646,0.0250551 -0.0501102,0.0463504 -0.0818465,0.0643071 -0.0317362,0.0179567 -0.0659764,0.0325709 -0.102724,0.0442638 -0.0371654,0.0112756 -0.076,0.019626 -0.116921,0.0250551 -0.0409252,0.00501181 -0.0822638,0.00793307 -0.124024,0.00793307l0 0.118594c0,0.0304843 0.000417323,0.0559567 0.000834646,0.0764173 0.000417323,0.0204606 0.000834646,0.0371654 0.00125197,0.0509449 0.00042126,0.0133622 0.000838583,0.0263071 0.00167323,0.0388346 0.00125197,0.0121102 0.00292126,0.0217165 0.00542913,0.028815 0.00208661,0.00751575 0.00835039,0.0133622 0.0192087,0.0179567 0.010437,0.00417323 0.0271417,0.00793307 0.049689,0.010437 0.0225512,0.0029252 0.055122,0.00542913 0.0968819,0.00793701l-0.0242205 0.0559567c-0.0108583,-0.000838583 -0.0246378,-0.00209055 -0.0417598,-0.00334252 -0.0171181,-0.00125197 -0.0359094,-0.00250394 -0.0567913,-0.00334252 -0.020878,-0.000834646 -0.0425906,-0.00125197 -0.0647244,-0.00208661 -0.0225472,-0.000417323 -0.0442638,-0.000834646 -0.0651417,-0.000834646 -0.0292323,0 -0.0567913,0.000417323 -0.0822638,0.00166929 -0.0258898,0.000834646 -0.0484409,0.00209055 -0.0680669,0.00334252 -0.019626,0.00125197 -0.0354961,0.00250394 -0.0476024,0.00375591 -0.0125276,0.000417323 -0.0200472,0.000838583 -0.0229685,0.000838583 0,-0.00334252 0.000834646,-0.00877165 0.00250394,-0.0154528 0.00125591,-0.0066811 0.00584646,-0.0137795 0.0142008,-0.020878 0.00835039,-0.00751575 0.0212953,-0.0141969 0.039252,-0.0204606 0.0179567,-0.00584646 0.0434291,-0.0104409 0.0764173,-0.0129488 0.00166929,-0.0183701 0.00292126,-0.0400866 0.00375591,-0.0659764 0.00125591,-0.0254724 0.00209055,-0.0538661 0.00250787,-0.0843504 0.000834646,-0.0304843 0.000834646,-0.0626378 0.000834646,-0.0964646zm0.227165 -0.620528c-0.00877165,0 -0.0187913,0.000417323 -0.0304843,0.000838583 -0.0112756,0.000417323 -0.0233858,0.000834646 -0.0350748,0.00166929 -0.000838583,0.0246378 -0.00125591,0.0513622 -0.00167323,0.0810118 -0.000417323,0.0292283 -0.000834646,0.0626378 -0.000834646,0.100217l0 0.286047c0.0283976,-0.000417323 0.0555394,-0.00167323 0.0822638,-0.00459449 0.0267244,-0.00250394 0.0521969,-0.00709843 0.0764173,-0.0137795 0.0238031,-0.0066811 0.0459331,-0.0158701 0.0659803,-0.027563 0.0200433,-0.011689 0.0371614,-0.0267244 0.0517795,-0.0446811 0.0150315,-0.018374 0.0263071,-0.0400866 0.0342402,-0.0659764 0.00835433,-0.0258898 0.0125276,-0.0567913 0.0125276,-0.0922874 0,-0.0417559 -0.00584646,-0.0768346 -0.0175394,-0.105228 -0.011689,-0.0279803 -0.0283937,-0.0505276 -0.0505276,-0.0676496 -0.0221299,-0.017122 -0.0488543,-0.0296496 -0.0801732,-0.036748 -0.0317362,-0.00751575 -0.0672323,-0.0112756 -0.106902,-0.0112756z"/>
  <path class="fil5" d="M1.35167 1.4087c0,0.0743268 0.00918504,0.140724 0.0275591,0.199602 0.018374,0.0584646 0.0442638,0.108154 0.0776693,0.149079 0.0338268,0.0409213 0.0739134,0.0718228 0.121098,0.0935394 0.047189,0.0217126 0.0989685,0.0325709 0.156177,0.0325709 0.0396693,0 0.077252,-0.00584646 0.112748,-0.0175394 0.0359094,-0.0116929 0.0672283,-0.0313189 0.094374,-0.0597126 0.0271417,-0.0279803 0.048437,-0.065563 0.0643071,-0.112748 0.0158661,-0.047189 0.0242205,-0.106067 0.0242205,-0.176638 0,-0.0743307 -0.0096063,-0.141563 -0.0279803,-0.200441 -0.0187913,-0.0592953 -0.0446811,-0.109406 -0.0780866,-0.150331 -0.0334055,-0.0409213 -0.0734961,-0.0722402 -0.120264,-0.0939528 -0.0467677,-0.0221339 -0.0981339,-0.0329921 -0.154925,-0.0329921 -0.0396693,0 -0.077252,0.00626378 -0.113161,0.0179567 -0.0359134,0.0121102 -0.0672323,0.0325709 -0.094374,0.0609685 -0.0271457,0.028811 -0.0488583,0.0663937 -0.0651457,0.114 -0.0158661,0.047185 -0.0242165,0.106067 -0.0242165,0.176638zm0.378744 -0.453913c0.0647283,0 0.125693,0.0108583 0.182902,0.0321535 0.0572087,0.0212953 0.107319,0.0526142 0.149913,0.094374 0.0430118,0.0413425 0.0768346,0.0922874 0.101472,0.152835 0.0250551,0.0605512 0.0375827,0.12987 0.0375827,0.207539 0,0.0626378 -0.00793307,0.119429 -0.0242205,0.169957 -0.0158661,0.0501102 -0.0375827,0.0947913 -0.0651417,0.133626 -0.0271417,0.039252 -0.0592992,0.0726575 -0.0960433,0.100638 -0.0363307,0.0283937 -0.0751654,0.0513622 -0.116091,0.0697362 -0.0409213,0.018374 -0.0830984,0.0321535 -0.12611,0.0405039 -0.0434252,0.00877165 -0.085185,0.0129449 -0.12611,0.0129449 -0.0425906,0 -0.0835157,-0.00459055 -0.123185,-0.0133622 -0.039252,-0.00918504 -0.0764173,-0.0225472 -0.111496,-0.0405039 -0.0346575,-0.0179567 -0.066811,-0.0405079 -0.095626,-0.0672323 -0.028811,-0.0271417 -0.0538661,-0.0584606 -0.074748,-0.094374 -0.020878,-0.0359094 -0.0367441,-0.076 -0.048437,-0.121098 -0.0112756,-0.0446811 -0.017122,-0.0939567 -0.017122,-0.147406 0,-0.0651417 0.00835039,-0.123606 0.0250551,-0.175386 0.0162874,-0.0513622 0.0388346,-0.096878 0.066815,-0.13613 0.0283937,-0.0392559 0.0609646,-0.0730787 0.0981299,-0.100638 0.036748,-0.0279803 0.076,-0.0505276 0.116925,-0.0680669 0.0409213,-0.0175394 0.0826811,-0.0300669 0.124854,-0.038 0.0421772,-0.00793307 0.0822638,-0.0121102 0.120681,-0.0121102z"/>
  <path class="fil5" d="M3.07086 1.01826c0.00584646,-0.000417323 0.0129449,-0.000834646 0.0204606,-0.00125197 0.00751969,-0.000834646 0.0150354,-0.00125197 0.0229685,-0.00209055 0.00793307,-0.000834646 0.0158701,-0.00208661 0.0233858,-0.00292126 0.00751575,-0.000834646 0.0146142,-0.00208661 0.0212953,-0.00333858 0.00375984,0.0167008 0.00918898,0.0367441 0.0150315,0.0601299 0.00626378,0.0233858 0.0129488,0.0488583 0.0200472,0.0755827 0.00709843,0.0271417 0.0146142,0.055122 0.0225472,0.0839331 0.00793307,0.028815 0.0158701,0.057626 0.0242205,0.0860236l0.0463504 0.162858c0.0104409,0.0354921 0.0212992,0.076 0.0338268,0.121098 0.0121102,0.0455157 0.0258898,0.0922835 0.0409213,0.139472l0.00501181 0c0.00918504,-0.0246378 0.020878,-0.0542874 0.0346575,-0.0893622 0.0137835,-0.0346614 0.028815,-0.0718268 0.0442638,-0.111913 0.0158701,-0.0400866 0.0317362,-0.0810118 0.0484409,-0.123189 0.0167047,-0.0421732 0.0321535,-0.0826811 0.047189,-0.121516 0.0146142,-0.0388346 0.0283937,-0.0743268 0.0405039,-0.107736 0.0116929,-0.0329882 0.0212953,-0.0601299 0.0283937,-0.0810118 0.00501181,-0.0158661 0.00835433,-0.0267244 0.00918898,-0.0334055 0.00125197,-0.0066811 0.00166929,-0.0104409 0.00166929,-0.0112756 0,-0.0054252 -0.00208661,-0.00960236 -0.00584646,-0.0129449 -0.00375591,-0.00333858 -0.0108543,-0.00584646 -0.0204606,-0.00793307 -0.0096063,-0.00208661 -0.0229685,-0.00375984 -0.039252,-0.00542913 -0.0162874,-0.00125197 -0.036748,-0.00292126 -0.0618031,-0.00501181l0.0246378 -0.0551181c0.00292126,0.000834646 0.0108583,0.00166929 0.0233858,0.00250394 0.0129449,0.000834646 0.0279764,0.00166929 0.0450984,0.00250394 0.0171181,0.000838583 0.0346575,0.00125591 0.0530315,0.00167323 0.018374,0.000417323 0.0346614,0.000834646 0.0492756,0.000834646 0.0175394,0 0.0359134,-0.000417323 0.0559567,-0.00125197 0.019626,-0.000834646 0.038,-0.00167323 0.0547008,-0.00250787 0.017122,-0.000834646 0.0317362,-0.00166929 0.0434291,-0.00292126 0.0121102,-0.000834646 0.0192087,-0.00166929 0.0212992,-0.00208661 0,0.00417323 -0.000834646,0.00960236 -0.00250787,0.0162835 -0.00166929,0.0066811 -0.0066811,0.0137795 -0.0150315,0.020878 -0.00877165,0.00709843 -0.0221339,0.0137835 -0.0400866,0.019626 -0.0179567,0.00626378 -0.0430118,0.0104409 -0.0755827,0.0129488 -0.0229685,0.0442638 -0.0509449,0.105228 -0.0843543,0.183736 -0.0329882,0.0785039 -0.0714055,0.172878 -0.115252,0.282283 -0.0192087,0.0488583 -0.0359134,0.0914528 -0.0501102,0.128197 -0.0141969,0.0363307 -0.0267244,0.0689016 -0.0375827,0.0968819 -0.0108583,0.0283937 -0.0200433,0.0530315 -0.0279764,0.0739094 -0.00751575,0.0208819 -0.0146181,0.0400906 -0.0204606,0.0572087 -0.00584646,0.017122 -0.0112756,0.0329921 -0.0158701,0.0476063 -0.00459449,0.0146142 -0.00960236,0.0296496 -0.0141969,0.0455157 -0.00751575,0.000834646 -0.0154528,0.00125197 -0.0246378,0.00209055 -0.00877165,0.000834646 -0.018374,0.00208661 -0.0279803,0.00292126 -0.00960236,0.000834646 -0.0187913,0.00208661 -0.0283937,0.00334252 -0.00918504,0.00125197 -0.0179567,0.00250394 -0.0254724,0.00375591l-0.19835 -0.702374 -0.00250787 0c-0.0066811,0.017122 -0.0141969,0.0350787 -0.0217126,0.0534528 -0.00793307,0.0187913 -0.0162874,0.039252 -0.0254724,0.0617992 -0.00918898,0.0229685 -0.019626,0.0480236 -0.0304843,0.0764173 -0.0112756,0.0279803 -0.0242205,0.0601339 -0.0384173,0.0960472 -0.0250551,0.0609646 -0.0455157,0.113583 -0.0622205,0.157008 -0.0167047,0.0438465 -0.0309016,0.0810118 -0.0421772,0.111913 -0.011689,0.0309016 -0.020878,0.0567913 -0.0275591,0.0776693 -0.00709843,0.0212992 -0.0133622,0.0396732 -0.018374,0.0559567 -0.00751575,0.000834646 -0.0154488,0.00125197 -0.0246378,0.00209055 -0.00876772,0.000834646 -0.018374,0.00208661 -0.0279764,0.00292126 -0.0096063,0.000834646 -0.0187913,0.00208661 -0.0283976,0.00334252 -0.00918504,0.00125197 -0.0179567,0.00250394 -0.0254724,0.00375591 -0.00125197,-0.00542913 -0.00417323,-0.0167047 -0.00918504,-0.0342402 -0.00501181,-0.0175394 -0.0112756,-0.0396732 -0.018374,-0.0659803 -0.00793307,-0.0263071 -0.0162874,-0.056374 -0.0258898,-0.0901969 -0.00918898,-0.0334055 -0.0192087,-0.0689016 -0.0300669,-0.106484 -0.0108583,-0.0371654 -0.0221299,-0.076 -0.0334055,-0.115252 -0.0112756,-0.0396693 -0.0225512,-0.0789252 -0.0338268,-0.117343 -0.0112717,-0.0384173 -0.0221299,-0.0755827 -0.0329882,-0.111492 -0.010437,-0.0359134 -0.0204606,-0.0689016 -0.0292283,-0.0985512 -0.00877165,-0.0296457 -0.017122,-0.0559567 -0.0238031,-0.0780866 -0.00709843,-0.0221339 -0.0125276,-0.0388346 -0.0167047,-0.0496929 -0.00501181,-0.0141969 -0.0108583,-0.0258898 -0.0171181,-0.0346575 -0.00584646,-0.00877165 -0.0150354,-0.0158701 -0.0267283,-0.0212992 -0.0116929,-0.00501181 -0.0279764,-0.00918504 -0.0480197,-0.0116929 -0.0200433,-0.00250394 -0.047189,-0.00500787 -0.0805945,-0.00709843l0.0246378 -0.0551181c0.00417717,0.000834646 0.0129449,0.00166929 0.0263071,0.00292126 0.0133622,0.000834646 0.0296496,0.00166929 0.0484409,0.00250394 0.0192087,0.000834646 0.0396693,0.00167323 0.0626378,0.00209055 0.0225472,0.000834646 0.0450984,0.00125197 0.0676457,0.00125197 0.0271457,0 0.0538701,-0.000417323 0.0797598,-0.00125197 0.0263071,-0.000834646 0.0496929,-0.00209055 0.0705709,-0.00334252 0.020878,-0.00125197 0.038,-0.00208661 0.0513622,-0.00333858 0.0133622,-0.000834646 0.0212953,-0.00167323 0.0238031,-0.00209055 0,0.00417717 -0.000834646,0.0096063 -0.00208661,0.0162874 -0.00125591,0.0066811 -0.00626378,0.0137795 -0.0142008,0.0204606 -0.00793307,0.00709843 -0.0200433,0.0133622 -0.0367441,0.019626 -0.0162874,0.00626378 -0.0396732,0.0104409 -0.0693189,0.0133622 0.00835039,0.0342441 0.0187913,0.0739134 0.0317362,0.119429 0.0133622,0.0450984 0.0275591,0.0964606 0.0430079,0.153669l0.0450984 0.164949c0.00668504,0.0242165 0.0125276,0.0463504 0.018374,0.066811 0.00584646,0.020878 0.0116929,0.0413425 0.0175394,0.0613858 0.00584646,0.0200433 0.0121102,0.0409213 0.0187913,0.0622205 0.00584646,0.0212953 0.0125276,0.0450984 0.0200433,0.0701535l0.00501181 0c0.00584646,-0.0158701 0.0141969,-0.0371654 0.0246378,-0.0634724 0.0104409,-0.0263071 0.0221299,-0.0555394 0.0346575,-0.0881102 0.0129488,-0.0325709 0.0267283,-0.0676496 0.0417598,-0.104815 0.0150315,-0.0375827 0.0296496,-0.0751654 0.0446811,-0.113165 0.0150354,-0.0375827 0.0292323,-0.0751654 0.0434291,-0.111492 0.0141969,-0.0363307 0.0271417,-0.0701535 0.039252,-0.101055 0.0121102,-0.0313189 0.0221339,-0.0584646 0.0309016,-0.0822638 0.00876772,-0.0242205 0.0154528,-0.0421772 0.019626,-0.055122z"/>
  <path class="fil5" d="M4.16785 1.47719l0 0.235933c0,0.0309016 0.000417323,0.056374 0.000834646,0.0768346 0.000417323,0.0200433 0.000834646,0.0342402 0.00167323,0.0421772 0.000834646,0.0116929 0.00333858,0.020878 0.00709843,0.0275591 0.00375591,0.0066811 0.010437,0.0121102 0.0200433,0.0154488 0.00918504,0.00334252 0.0221299,0.00584646 0.0384173,0.00668504 0.0162835,0.000834646 0.0371654,0.00166929 0.0630551,0.00166929 0.0384173,0 0.0714055,-0.000834646 0.0998031,-0.0029252 0.0279764,-0.00166929 0.0526142,-0.00542913 0.0730748,-0.0108543 0.020878,-0.00501181 0.0388346,-0.0125276 0.0542874,-0.0225512 0.0154488,-0.00960236 0.0292283,-0.0225512 0.0413386,-0.0388346 0.0121102,-0.0158701 0.0238031,-0.0354961 0.0346614,-0.0584606 0.0112756,-0.0225512 0.0229646,-0.0501102 0.0354921,-0.0818465l0.055122 0.0121102c-0.00960236,0.0442638 -0.018374,0.0814252 -0.0254724,0.112327 -0.00751575,0.0309016 -0.0141969,0.056374 -0.0204606,0.0772559 -0.00584646,0.0204606 -0.0121102,0.0367441 -0.0175394,0.0488543 -0.00584646,0.0121102 -0.0121102,0.0208819 -0.0187913,0.0267283 -0.0066811,0.00626378 -0.0141969,0.0100197 -0.0225472,0.011689 -0.00835433,0.00125591 -0.018374,0.00209055 -0.0296496,0.00209055 -0.00918898,0 -0.0229685,0 -0.0421772,-0.000834646 -0.0192087,-0.000417323 -0.0413386,-0.00125591 -0.066811,-0.00209055 -0.0250551,-0.000834646 -0.0530354,-0.00166929 -0.0826811,-0.00250394 -0.0300669,-0.000834646 -0.0605512,-0.00166929 -0.0914528,-0.00250787 -0.0304843,-0.000834646 -0.0609685,-0.00125197 -0.0906142,-0.00208661 -0.0296496,-0.000417323 -0.0572087,-0.000834646 -0.0826811,-0.000834646 -0.0722441,0 -0.126945,0.00166929 -0.163693,0.00501181 -0.0375827,0.00333858 -0.0605512,0.00459449 -0.0689016,0.00459449 0,-0.00334252 0.000834646,-0.00877165 0.00250394,-0.0154528 0.00125591,-0.0066811 0.00584646,-0.0137795 0.0142008,-0.020878 0.00835039,-0.00751575 0.0212953,-0.0141969 0.039252,-0.0204606 0.0179567,-0.00584646 0.0434291,-0.0104409 0.0764173,-0.0129488 0.00166929,-0.0171181 0.00292126,-0.0384173 0.00375591,-0.0647244 0.00125591,-0.0258898 0.00209055,-0.0538661 0.00250787,-0.0839331 0.000834646,-0.0296496 0.000834646,-0.0601339 0.000834646,-0.0910315l0 -0.253894c0,-0.0463504 0,-0.0860197 0,-0.119008 -0.000417323,-0.0325709 -0.000834646,-0.0597165 -0.000834646,-0.0805945 -0.000417323,-0.020878 -0.000834646,-0.0384173 -0.00125197,-0.0521969 -0.000417323,-0.0137795 -0.000834646,-0.0250551 -0.00125591,-0.0338268 -0.000417323,-0.00835039 -0.000834646,-0.0167008 -0.00125197,-0.0242165 -0.000834646,-0.0116929 -0.00208661,-0.0204646 -0.00417323,-0.0271457 -0.00167323,-0.00626378 -0.00710236,-0.0116929 -0.0154528,-0.0150315 -0.00876772,-0.00375984 -0.0221299,-0.0066811 -0.0400866,-0.00918898 -0.018374,-0.00208661 -0.0438465,-0.00459055 -0.077252,-0.00751575l0.0204606 -0.0538661c0.010437,0.00166929 0.0350748,0.00333858 0.0739134,0.00500787 0.0388346,0.00167323 0.0901969,0.00250787 0.153669,0.00250787 0.0321535,0 0.0651417,-0.000417323 0.0993858,-0.000834646 0.0346575,-0.000417323 0.0684803,-0.000834646 0.102307,-0.00167323 0.0338228,-0.000834646 0.0655591,-0.00166929 0.0960433,-0.00250394 0.0304843,-0.000834646 0.057626,-0.00166929 0.0818465,-0.00250394 0.0233819,-0.000834646 0.0425945,-0.00125197 0.057626,-0.00167323 0.0150315,-0.000417323 0.0233858,-0.000834646 0.0258898,-0.000834646 0.00584646,0 0.0116929,0.00209055 0.0179567,0.00584646 0.00584646,0.00375984 0.00918504,0.0121102 0.00960236,0.0246378 0.000834646,0.0238031 0.00125591,0.0530354 0.00125591,0.0881102 0,0.0350787 0.000834646,0.0714055 0.00250394,0.108988l-0.0538701 0.00626378c-0.0054252,-0.0254724 -0.010437,-0.0467677 -0.0158661,-0.0647244 -0.00542913,-0.0179567 -0.0116929,-0.0329882 -0.019626,-0.0446811 -0.00751575,-0.0112756 -0.0175394,-0.0204606 -0.0292323,-0.0275591 -0.0112756,-0.0066811 -0.0263071,-0.0116929 -0.0446811,-0.0146181 -0.018374,-0.00333858 -0.0405039,-0.00542913 -0.066811,-0.00626378 -0.0258937,-0.000834646 -0.0576299,-0.00125197 -0.0939567,-0.00125197l-0.111496 0c-0.00125197,0.0221339 -0.00208661,0.0450984 -0.00292126,0.0697362 -0.000834646,0.0246378 -0.00167323,0.0513622 -0.00209055,0.0805945 -0.000417323,0.0296496 -0.000417323,0.0622205 -0.000834646,0.0977126 0,0.0354961 -0.000417323,0.0755827 -0.000417323,0.120264 0.0492756,-0.00375591 0.094374,-0.00709843 0.134878,-0.0100197 0.0400906,-0.00250787 0.0751654,-0.00501181 0.104398,-0.00709843 0.0292323,-0.00209055 0.0530315,-0.00375984 0.0705709,-0.00459449 0.0175394,-0.00125197 0.0279803,-0.00166929 0.0317362,-0.00166929 0.0125276,0 0.0212953,0.00500787 0.0263071,0.0150315 0.00542913,0.0100236 0.00793701,0.0212953 0.00793701,0.0334055 0,0.0112756 -0.00167323,0.0217165 -0.00459449,0.0309016 -0.00250787,0.00918898 -0.00542913,0.017122 -0.00793307,0.0233858 -0.0317362,-0.00166929 -0.0626378,-0.0029252 -0.0927047,-0.00459449 -0.0300669,-0.00125197 -0.0601339,-0.00250394 -0.0897795,-0.00375591 -0.0296496,-0.00125591 -0.0592992,-0.00250787 -0.0893622,-0.00334252 -0.0296496,-0.00125197 -0.0601339,-0.00208661 -0.0914528,-0.00292126z"/>
  <path class="fil5" d="M4.9195 1.64129l0 -0.513209c0,-0.0192087 0,-0.0359094 0,-0.0501102 -0.000417323,-0.0137795 -0.000417323,-0.0263071 -0.000834646,-0.0375787 -0.0246378,0.00333858 -0.0492756,0.00709843 -0.0739134,0.0108543 -0.0246378,0.00375984 -0.048437,0.00793307 -0.0718228,0.0125276l0.0146142 -0.0613819c0.0263071,-0.00626378 0.056374,-0.0125276 0.0901969,-0.018374 0.0342441,-0.00584646 0.0693189,-0.0112756 0.106067,-0.0154528 0.0363307,-0.00417323 0.0730787,-0.00751575 0.109406,-0.0100197 0.036748,-0.00250787 0.0709921,-0.00375984 0.103146,-0.00375984 0.0296457,0 0.0597126,0.00125197 0.0901969,0.00417717 0.0300669,0.00250394 0.0592953,0.00709843 0.0872756,0.0141969 0.0279764,0.00709843 0.0542835,0.0162835 0.0789213,0.0279764 0.0246378,0.0121102 0.045937,0.0271457 0.0643071,0.045937 0.0179567,0.0183701 0.0325748,0.0405039 0.0425945,0.0659764 0.0104409,0.0258898 0.0158701,0.0559567 0.0158701,0.0901969 0,0.0354961 -0.00584646,0.0672323 -0.017122,0.0960433 -0.0108583,0.0283976 -0.0263071,0.0538701 -0.0459331,0.0764213 -0.019626,0.0225472 -0.0425945,0.0417559 -0.0693189,0.0580433 -0.0267244,0.0162835 -0.0555394,0.030063 -0.0868583,0.0409213 0.0317362,0.0567913 0.0597126,0.106484 0.0847677,0.149496 0.0246378,0.0430118 0.0476063,0.0805945 0.0689016,0.112331 0.0212992,0.0317362 0.0417598,0.0584606 0.0613858,0.0797559 0.0192087,0.0217165 0.0396693,0.0388346 0.0605512,0.0521969 0.0212953,0.0133661 0.0438425,0.0229685 0.068063,0.0292323 0.0242205,0.00626378 0.0517835,0.0100236 0.0822638,0.0112756l-0.020878 0.0480197c-0.0221299,0.00334252 -0.0438465,0.00626378 -0.0655591,0.00793701 -0.0221339,0.00208661 -0.0405079,0.00292126 -0.0559567,0.00292126 -0.0317362,0 -0.0601339,-0.00375591 -0.0856063,-0.0108583 -0.0254724,-0.00751575 -0.0488543,-0.018374 -0.0709882,-0.0329882 -0.0217126,-0.0146142 -0.0421772,-0.0325709 -0.0618031,-0.0542835 -0.019626,-0.0212992 -0.039252,-0.0467717 -0.0592953,-0.0755827 -0.019626,-0.028815 -0.0396693,-0.0613858 -0.0605512,-0.0972992 -0.0204606,-0.0359094 -0.0430079,-0.0751654 -0.0676457,-0.118173l-0.0158701 -0.0279803c-0.00333858,-0.00626378 -0.00709843,-0.0108583 -0.0100197,-0.0146142 -0.0029252,-0.00334252 -0.00626378,-0.00584646 -0.0096063,-0.00793307 -0.00375984,-0.00167323 -0.00709843,-0.0029252 -0.0112756,-0.00334252 -0.00375591,-0.000834646 -0.00793307,-0.00125197 -0.0129449,-0.00125197 -0.00375591,0 -0.00793307,0 -0.0129449,0 -0.00542913,0.000417323 -0.0116929,0.000834646 -0.0187913,0.000834646 -0.00751575,0 -0.0162835,0 -0.0263071,0 -0.0108583,0.000417323 -0.0233858,0.000417323 -0.0375827,0.000417323 0,0.0822638 0.000417323,0.148661 0.000417323,0.200024 0.000417323,0.0509449 0.00125197,0.0897795 0.00334252,0.115669 0.000834646,0.0116929 0.00208661,0.0204606 0.00417323,0.0271417 0.00209055,0.0066811 0.00793701,0.0125276 0.017122,0.0167047 0.0096063,0.00417717 0.0242205,0.00751575 0.0438465,0.0100197 0.019626,0.00250787 0.0480236,0.00501181 0.0843504,0.00751969l-0.0246378 0.0551181c-0.010437,-0.00125197 -0.0237992,-0.00250394 -0.0396693,-0.00375591 -0.0158661,-0.000834646 -0.0334055,-0.00166929 -0.0521969,-0.00250787 -0.0187913,-0.000834646 -0.038,-0.00166929 -0.0580433,-0.00208661 -0.0200433,-0.000417323 -0.0388346,-0.000417323 -0.0567913,-0.000417323 -0.0292323,0 -0.056374,0.000417323 -0.0818465,0.00166929 -0.0258898,0.000834646 -0.0484409,0.00209055 -0.0680669,0.00334252 -0.019626,0.00125197 -0.0354961,0.00250394 -0.0476024,0.00375591 -0.0125276,0.000417323 -0.0200472,0.000838583 -0.0229685,0.000838583 0,-0.00334252 0.000834646,-0.00877165 0.00250394,-0.0154528 0.00125591,-0.0066811 0.00584646,-0.0137795 0.0142008,-0.020878 0.00835039,-0.00751575 0.0212953,-0.0141969 0.039252,-0.0204606 0.0179567,-0.00584646 0.0434291,-0.0104409 0.0764173,-0.0129488 0.00166929,-0.0183701 0.00292126,-0.0400866 0.00375591,-0.0659764 0.00125591,-0.0254724 0.00209055,-0.0538661 0.00250787,-0.0843504 0.000834646,-0.0304843 0.000834646,-0.0626378 0.000834646,-0.0964646zm0.227583 -0.620528c-0.0112756,0 -0.0217126,0.000417323 -0.0317362,0.000838583 -0.0096063,0.000834646 -0.0212953,0.00166929 -0.0342402,0.00292126 -0.000838583,0.0238031 -0.00125591,0.0492756 -0.00167323,0.0768346 -0.000417323,0.027563 -0.000834646,0.058878 -0.000834646,0.0939567l0 0.271012 0.017122 0c0.0258898,0 0.0513622,-0.00125197 0.0764173,-0.00334252 0.0250551,-0.00250394 0.0488583,-0.00626378 0.0714055,-0.0125276 0.0225512,-0.00584646 0.0438465,-0.0141969 0.0630551,-0.0250551 0.0192087,-0.0108543 0.0359134,-0.0246378 0.0501102,-0.0413386 0.0141969,-0.017122 0.0250551,-0.0375827 0.0329882,-0.0618031 0.00793701,-0.0242205 0.0121102,-0.0526142 0.0121102,-0.0856024 0,-0.0388386 -0.00584646,-0.0722441 -0.0175394,-0.0993858 -0.011689,-0.027563 -0.0283937,-0.0496929 -0.0501063,-0.0672323 -0.0217165,-0.0171181 -0.0484409,-0.0296457 -0.0801772,-0.0375827 -0.0317362,-0.00751575 -0.0672323,-0.0116929 -0.106902,-0.0116929z"/>
  <path class="fil5" d="M6.08915 1.47719l0 0.235933c0,0.0309016 0.000417323,0.056374 0.000834646,0.0768346 0.000417323,0.0200433 0.000834646,0.0342402 0.00167323,0.0421772 0.000834646,0.0116929 0.00333858,0.020878 0.00709843,0.0275591 0.00375591,0.0066811 0.010437,0.0121102 0.0200433,0.0154488 0.00918504,0.00334252 0.0221299,0.00584646 0.0384173,0.00668504 0.0162835,0.000834646 0.0371654,0.00166929 0.0630551,0.00166929 0.0384173,0 0.0714055,-0.000834646 0.0998031,-0.0029252 0.0279764,-0.00166929 0.0526142,-0.00542913 0.0730748,-0.0108543 0.020878,-0.00501181 0.0388346,-0.0125276 0.0542874,-0.0225512 0.0154488,-0.00960236 0.0292283,-0.0225512 0.0413386,-0.0388346 0.0121102,-0.0158701 0.0238031,-0.0354961 0.0346614,-0.0584606 0.0112756,-0.0225512 0.0229646,-0.0501102 0.0354921,-0.0818465l0.055122 0.0121102c-0.00960236,0.0442638 -0.018374,0.0814252 -0.0254724,0.112327 -0.00751575,0.0309016 -0.0141969,0.056374 -0.0204606,0.0772559 -0.00584646,0.0204606 -0.0121102,0.0367441 -0.0175394,0.0488543 -0.00584646,0.0121102 -0.0121102,0.0208819 -0.0187913,0.0267283 -0.0066811,0.00626378 -0.0141969,0.0100197 -0.0225472,0.011689 -0.00835433,0.00125591 -0.018374,0.00209055 -0.0296496,0.00209055 -0.00918898,0 -0.0229685,0 -0.0421772,-0.000834646 -0.0192087,-0.000417323 -0.0413386,-0.00125591 -0.066811,-0.00209055 -0.0250551,-0.000834646 -0.0530354,-0.00166929 -0.0826811,-0.00250394 -0.0300669,-0.000834646 -0.0605512,-0.00166929 -0.0914528,-0.00250787 -0.0304843,-0.000834646 -0.0609685,-0.00125197 -0.0906142,-0.00208661 -0.0296496,-0.000417323 -0.0572087,-0.000834646 -0.0826811,-0.000834646 -0.0722441,0 -0.126945,0.00166929 -0.163693,0.00501181 -0.0375827,0.00333858 -0.0605512,0.00459449 -0.0689016,0.00459449 0,-0.00334252 0.000834646,-0.00877165 0.00250394,-0.0154528 0.00125591,-0.0066811 0.00584646,-0.0137795 0.0142008,-0.020878 0.00835039,-0.00751575 0.0212953,-0.0141969 0.039252,-0.0204606 0.0179567,-0.00584646 0.0434291,-0.0104409 0.0764173,-0.0129488 0.00166929,-0.0171181 0.00292126,-0.0384173 0.00375591,-0.0647244 0.00125591,-0.0258898 0.00209055,-0.0538661 0.00250787,-0.0839331 0.000834646,-0.0296496 0.000834646,-0.0601339 0.000834646,-0.0910315l0 -0.253894c0,-0.0463504 0,-0.0860197 0,-0.119008 -0.000417323,-0.0325709 -0.000834646,-0.0597165 -0.000834646,-0.0805945 -0.000417323,-0.020878 -0.000834646,-0.0384173 -0.00125197,-0.0521969 -0.000417323,-0.0137795 -0.000834646,-0.0250551 -0.00125591,-0.0338268 -0.000417323,-0.00835039 -0.000834646,-0.0167008 -0.00125197,-0.0242165 -0.000834646,-0.0116929 -0.00208661,-0.0204646 -0.00417323,-0.0271457 -0.00167323,-0.00626378 -0.00710236,-0.0116929 -0.0154528,-0.0150315 -0.00876772,-0.00375984 -0.0221299,-0.0066811 -0.0400866,-0.00918898 -0.018374,-0.00208661 -0.0438465,-0.00459055 -0.077252,-0.00751575l0.0204606 -0.0538661c0.010437,0.00166929 0.0350748,0.00333858 0.0739134,0.00500787 0.0388346,0.00167323 0.0901969,0.00250787 0.153669,0.00250787 0.0321535,0 0.0651417,-0.000417323 0.0993858,-0.000834646 0.0346575,-0.000417323 0.0684803,-0.000834646 0.102307,-0.00167323 0.0338228,-0.000834646 0.0655591,-0.00166929 0.0960433,-0.00250394 0.0304843,-0.000834646 0.057626,-0.00166929 0.0818465,-0.00250394 0.0233819,-0.000834646 0.0425945,-0.00125197 0.057626,-0.00167323 0.0150315,-0.000417323 0.0233858,-0.000834646 0.0258898,-0.000834646 0.00584646,0 0.0116929,0.00209055 0.0179567,0.00584646 0.00584646,0.00375984 0.00918504,0.0121102 0.00960236,0.0246378 0.000834646,0.0238031 0.00125591,0.0530354 0.00125591,0.0881102 0,0.0350787 0.000834646,0.0714055 0.00250394,0.108988l-0.0538701 0.00626378c-0.0054252,-0.0254724 -0.010437,-0.0467677 -0.0158661,-0.0647244 -0.00542913,-0.0179567 -0.0116929,-0.0329882 -0.019626,-0.0446811 -0.00751575,-0.0112756 -0.0175394,-0.0204606 -0.0292323,-0.0275591 -0.0112756,-0.0066811 -0.0263071,-0.0116929 -0.0446811,-0.0146181 -0.018374,-0.00333858 -0.0405039,-0.00542913 -0.066811,-0.00626378 -0.0258937,-0.000834646 -0.0576299,-0.00125197 -0.0939567,-0.00125197l-0.111496 0c-0.00125197,0.0221339 -0.00208661,0.0450984 -0.00292126,0.0697362 -0.000834646,0.0246378 -0.00167323,0.0513622 -0.00209055,0.0805945 -0.000417323,0.0296496 -0.000417323,0.0622205 -0.000834646,0.0977126 0,0.0354961 -0.000417323,0.0755827 -0.000417323,0.120264 0.0492756,-0.00375591 0.094374,-0.00709843 0.134878,-0.0100197 0.0400906,-0.00250787 0.0751654,-0.00501181 0.104398,-0.00709843 0.0292323,-0.00209055 0.0530315,-0.00375984 0.0705709,-0.00459449 0.0175394,-0.00125197 0.0279803,-0.00166929 0.0317362,-0.00166929 0.0125276,0 0.0212953,0.00500787 0.0263071,0.0150315 0.00542913,0.0100236 0.00793701,0.0212953 0.00793701,0.0334055 0,0.0112756 -0.00167323,0.0217165 -0.00459449,0.0309016 -0.00250787,0.00918898 -0.00542913,0.017122 -0.00793307,0.0233858 -0.0317362,-0.00166929 -0.0626378,-0.0029252 -0.0927047,-0.00459449 -0.0300669,-0.00125197 -0.0601339,-0.00250394 -0.0897795,-0.00375591 -0.0296496,-0.00125591 -0.0592992,-0.00250787 -0.0893622,-0.00334252 -0.0296496,-0.00125197 -0.0601339,-0.00208661 -0.0914528,-0.00292126z"/>
  <path class="fil5" d="M6.70884 1.00239c0.0413425,-0.00793701 0.0822638,-0.0150354 0.122772,-0.0212992 0.0409213,-0.00626378 0.0805906,-0.0112756 0.118591,-0.0150315 0.038,-0.00375984 0.0743307,-0.0066811 0.108571,-0.00835433 0.0342441,-0.00208661 0.065563,-0.00292126 0.0935394,-0.00292126 0.094374,0 0.176638,0.0104409 0.247626,0.0304843 0.0705709,0.0204606 0.129453,0.0501102 0.176638,0.0889449 0.047189,0.0388346 0.0822638,0.0860197 0.106067,0.142394 0.0238031,0.056374 0.0354961,0.120264 0.0354961,0.191673 0,0.0421732 -0.00417717,0.085185 -0.0129449,0.129031 -0.00877165,0.0438465 -0.0225512,0.0860236 -0.0413425,0.126945 -0.0187913,0.0405079 -0.0434291,0.0785079 -0.0730748,0.114 -0.0300669,0.0359134 -0.0663976,0.0672323 -0.108575,0.0939567 -0.0425906,0.0267244 -0.0914488,0.0476063 -0.147406,0.0630551 -0.0555394,0.0150315 -0.118594,0.0225512 -0.189165,0.0225512 -0.0192087,0 -0.0375827,-0.00042126 -0.0555394,-0.00125591 -0.0175354,-0.00125197 -0.0354921,-0.00208661 -0.0538661,-0.00333858 -0.0187913,-0.00125197 -0.0384173,-0.00250787 -0.0584606,-0.00334252 -0.0200472,-0.00125197 -0.0421772,-0.00166929 -0.0659803,-0.00166929 -0.0238031,0 -0.0480197,0.000417323 -0.0718228,0.00166929 -0.0242205,0.000834646 -0.0459331,0.00209055 -0.065563,0.00334252 -0.019626,0.00125197 -0.0359094,0.00250394 -0.048437,0.00375591 -0.0125276,0.000417323 -0.019626,0.000838583 -0.020878,0.000838583 0,-0.00334252 0.000834646,-0.00877165 0.00208661,-0.0154528 0.00166929,-0.0066811 0.00626378,-0.0137795 0.0141969,-0.020878 0.00793307,-0.00751575 0.0204606,-0.0141969 0.038,-0.0204606 0.017122,-0.00584646 0.0421772,-0.0104409 0.0743307,-0.0129488 0.00166929,-0.0183701 0.00292126,-0.0400866 0.00375591,-0.0659764 0.00125591,-0.0263071 0.00209055,-0.0542874 0.00250787,-0.085185 0.000834646,-0.0309016 0.000834646,-0.0630551 0.000834646,-0.0968819l0 -0.509031c0,-0.0192087 0,-0.0359134 0,-0.0496929 -0.000417323,-0.0141969 -0.000417323,-0.0271417 -0.000834646,-0.0384173l-0.0734961 0.0108583c-0.0246378,0.00375591 -0.0488543,0.00793307 -0.0734921,0.0125276l0.0158661 -0.0638898zm0.384177 0.019626c-0.027563,0 -0.0584606,0.00125197 -0.0918701,0.00375591 -0.000834646,0.0204606 -0.00125197,0.0438465 -0.00166929,0.0701535 -0.000417323,0.0263071 -0.000834646,0.057626 -0.000834646,0.094374l0 0.297736c0,0.0634724 0.000417323,0.116091 0.000417323,0.157846 0.000417323,0.0421772 0.000417323,0.076 0.000834646,0.10189 0,0.0258898 0.000417323,0.0450984 0.00125197,0.0572087 0.000417323,0.0125276 0.00125591,0.0204646 0.00250787,0.0246378 0.00125197,0.0129449 0.00501181,0.0233858 0.0112717,0.0313189 0.00626378,0.00793307 0.0150354,0.0141969 0.0258937,0.018374 0.0108543,0.00417717 0.0233819,0.00709843 0.038,0.00835039 0.0146142,0.00125591 0.0313189,0.00167323 0.0488543,0.00167323 0.0597165,0 0.111496,-0.00501181 0.154925,-0.0154528 0.0438465,-0.010437 0.0805945,-0.0246378 0.111492,-0.0430118 0.0304843,-0.0179528 0.055122,-0.039252 0.0743307,-0.0643071 0.0187913,-0.0250551 0.0334055,-0.0517795 0.0442638,-0.0805906 0.0104409,-0.0292323 0.0175394,-0.0597165 0.0212992,-0.0914528 0.00375591,-0.0321535 0.0054252,-0.0643071 0.0054252,-0.0964606 0,-0.0843504 -0.0100197,-0.156594 -0.0296457,-0.216724 -0.0200433,-0.0601339 -0.0492756,-0.109409 -0.0872756,-0.147827 -0.0384173,-0.0384173 -0.085189,-0.0663937 -0.140307,-0.0843504 -0.0555394,-0.0179567 -0.118594,-0.0271417 -0.189165,-0.0271417z"/>
  <path class="fil5" d="M8.3086 1.64129l0 -0.448063c0,-0.0375827 0,-0.0684843 0,-0.0927047 -0.000417323,-0.0238031 -0.000417323,-0.0438465 -0.000834646,-0.0601299 -0.0271417,0.00375591 -0.0526142,0.00751575 -0.0768346,0.011689 -0.0242205,0.00417717 -0.0480236,0.00835433 -0.0714094,0.0129449l0.0146181 -0.0613819c0.0263071,-0.00626378 0.0559567,-0.0125276 0.0893622,-0.018374 0.0334055,-0.00626378 0.0680669,-0.0112756 0.104394,-0.0158701 0.0359134,-0.00417323 0.0722441,-0.00793307 0.108992,-0.010437 0.0363268,-0.0029252 0.0705709,-0.00417717 0.102724,-0.00417717 0.0275591,0 0.055122,0.00125197 0.0835157,0.00375984 0.0283937,0.00250394 0.0559567,0.0066811 0.0826811,0.0125276 0.0267244,0.00584252 0.0517795,0.0141969 0.0755827,0.0246339 0.0238031,0.0100236 0.0442638,0.0233858 0.0618031,0.0392559 0.0175394,0.0158661 0.0313189,0.0350748 0.0417559,0.057626 0.0100236,0.0221299 0.0150354,0.048437 0.0150354,0.0780866 0,0.0292323 -0.00501181,0.0559567 -0.0150354,0.0797598 -0.0100197,0.0233819 -0.0237992,0.0446811 -0.0413386,0.0634724 -0.0175394,0.0187913 -0.0384173,0.0354921 -0.0626378,0.0496929 -0.0242205,0.0146142 -0.0505276,0.0275591 -0.0789252,0.0388346l0 0.00375591c0.0354961,0.00459449 0.0693189,0.0121102 0.101894,0.0225512 0.0325709,0.0104409 0.0613819,0.0250551 0.0860197,0.0438465 0.0246378,0.0187913 0.0442638,0.0430118 0.058878,0.0718228 0.0150354,0.0292323 0.0221339,0.0643071 0.0221339,0.106067 0,0.0513622 -0.0112756,0.0960433 -0.0334055,0.134461 -0.0225512,0.0384173 -0.0530354,0.0701535 -0.0914528,0.095626 -0.0384173,0.0254724 -0.0826811,0.0446811 -0.132791,0.0572087 -0.0505276,0.0125276 -0.103976,0.0192087 -0.159933,0.0192087 -0.0162874,0 -0.0329882,-0.000417323 -0.0492756,-0.00125197 -0.0162835,-0.000834646 -0.0329882,-0.00208661 -0.0501102,-0.00333858 -0.0175354,-0.00125591 -0.0354921,-0.00209055 -0.0547008,-0.0029252 -0.0187913,-0.000834646 -0.0392559,-0.00125197 -0.0609685,-0.00125197 -0.0229685,0 -0.0467677,0.000417323 -0.0705709,0.00166929 -0.0238031,0.000834646 -0.0455157,0.00209055 -0.0651417,0.00334252 -0.0196299,0.00125197 -0.0354961,0.00250394 -0.0480236,0.00375591 -0.0133622,0.000417323 -0.0204606,0.000838583 -0.0217126,0.000838583 0,-0.00334252 0.000834646,-0.00877165 0.00208661,-0.0154528 0.00166929,-0.0066811 0.00626378,-0.0137795 0.0141969,-0.020878 0.00793307,-0.00751575 0.0204606,-0.0141969 0.038,-0.0204606 0.017122,-0.00584646 0.0421772,-0.0104409 0.0743307,-0.0129488 0.00166929,-0.0183701 0.00292126,-0.0400866 0.00375591,-0.0659764 0.00125591,-0.0254724 0.00209055,-0.0538661 0.00250787,-0.0843504 0.000834646,-0.0304843 0.000834646,-0.0626378 0.000834646,-0.0964646zm0.244705 -0.179976c-0.00709843,0 -0.0150354,0 -0.0238031,0.000417323 -0.00877165,0 -0.0175394,0.000417323 -0.0258898,0.000834646 -0.00835433,0.000417323 -0.0158701,0.000834646 -0.0221339,0.00125197 -0.0066811,0.00042126 -0.0116929,0.000838583 -0.0150315,0.00125591 0,0.0672283 0.000417323,0.122768 0.000417323,0.167031 0.000417323,0.0442638 0.000417323,0.0801772 0.000834646,0.107736 0.000417323,0.0275591 0.00125197,0.0484409 0.00166929,0.0622205 0.000417323,0.0137795 0.00125591,0.0238031 0.00209055,0.0300669 0.00166929,0.0121102 0.00542913,0.0217126 0.0108543,0.0292283 0.00542913,0.00751575 0.0125276,0.0129449 0.0212992,0.0167047 0.00876772,0.00333858 0.0192087,0.00584646 0.0309016,0.00709843 0.0116929,0.00125197 0.0250551,0.00208661 0.0396693,0.00208661 0.0442638,0 0.0818465,-0.00375591 0.113583,-0.0112717 0.0317362,-0.00710236 0.057626,-0.0187913 0.0776693,-0.0346614 0.0200433,-0.0158661 0.0350787,-0.036748 0.0442638,-0.0618031 0.0096063,-0.0254724 0.0141969,-0.0559567 0.0141969,-0.0914488 0,-0.0425945 -0.00626378,-0.0785079 -0.0192087,-0.107736 -0.0125276,-0.0292323 -0.0304803,-0.0526142 -0.0538661,-0.0701535 -0.0233858,-0.0175394 -0.0517795,-0.0300669 -0.0856063,-0.0375827 -0.0334055,-0.00751575 -0.0705709,-0.0112756 -0.111909,-0.0112756zm-0.0868583 -0.055122c0.0250551,-0.000417323 0.0501102,-0.00166929 0.074748,-0.00375591 0.0250551,-0.00250787 0.0488543,-0.00626378 0.0714055,-0.0112756 0.0229685,-0.00542913 0.0442638,-0.0129449 0.0638898,-0.0221339 0.019626,-0.00960236 0.0363307,-0.0217126 0.0509449,-0.0367441 0.0146142,-0.0150354 0.0258898,-0.0334094 0.0338268,-0.0542874 0.00835039,-0.0212953 0.0125236,-0.0463504 0.0125236,-0.0755827 0,-0.0338228 -0.00584252,-0.0622205 -0.0171181,-0.085185 -0.0116929,-0.0229685 -0.027563,-0.0417598 -0.0488583,-0.0555394 -0.020878,-0.0141969 -0.0463504,-0.0242205 -0.076,-0.0304843 -0.0296496,-0.00584646 -0.0630551,-0.00918504 -0.10022,-0.00918504 -0.00876772,0 -0.0187913,0.000417323 -0.0296457,0.000834646 -0.0112756,0.000417323 -0.0221339,0.000834646 -0.0329921,0.00166929 -0.000834646,0.0217126 -0.00125197,0.0463504 -0.00166929,0.0743307 -0.000417323,0.0279764 -0.000834646,0.0584606 -0.000834646,0.0914488l0 0.21589z"/>
  <path class="fil5" d="M9.48451 1.65466c0,-0.0179567 0,-0.0334094 -0.000417323,-0.045937 -0.000417323,-0.0125276 -0.00209055,-0.0242165 -0.00417717,-0.0350748 -0.00208661,-0.0108583 -0.00542913,-0.0217165 -0.0096063,-0.0329882 -0.00375591,-0.0112756 -0.00960236,-0.0242205 -0.0171181,-0.0392559 -0.00751575,-0.0150315 -0.017122,-0.0325709 -0.0279803,-0.0530315 -0.0112717,-0.0204606 -0.0250551,-0.0455157 -0.0409213,-0.0751654 -0.00918898,-0.0167047 -0.0187913,-0.0346575 -0.0292323,-0.0538661 -0.010437,-0.0192087 -0.0217126,-0.0400906 -0.0342402,-0.0622205 -0.0125276,-0.0225512 -0.0258898,-0.0467717 -0.0409252,-0.0726614 -0.0150315,-0.0258898 -0.0313189,-0.0538661 -0.049689,-0.0839331 -0.00835433,-0.0137795 -0.0154528,-0.0246378 -0.0221339,-0.0329882 -0.0066811,-0.00877165 -0.0154488,-0.0154528 -0.0267244,-0.020878 -0.0116929,-0.00542913 -0.0271417,-0.0096063 -0.0467717,-0.0125276 -0.019626,-0.00334252 -0.0459331,-0.00584646 -0.0793386,-0.00835433l0.0242205 -0.0551181c0.00417323,0.000834646 0.0129449,0.00166929 0.0263071,0.00292126 0.0129449,0.000834646 0.028811,0.00166929 0.047185,0.00250394 0.018374,0.000834646 0.0384173,0.00167323 0.0605512,0.00209055 0.0221299,0.000834646 0.0442638,0.00125197 0.0659764,0.00125197 0.0283976,0 0.0555394,-0.000417323 0.0814291,-0.00125197 0.0263071,-0.000834646 0.0496929,-0.00209055 0.0705709,-0.00334252 0.0204646,-0.00125197 0.0375827,-0.00208661 0.0513622,-0.00333858 0.0133661,-0.000834646 0.0212992,-0.00167323 0.0238031,-0.00209055 0,0.00417717 -0.000834646,0.0096063 -0.00208661,0.0162874 -0.00166929,0.0066811 -0.00584646,0.0137795 -0.0137795,0.0204606 -0.00751575,0.00709843 -0.0192087,0.0133622 -0.0359134,0.019626 -0.0167047,0.00626378 -0.0396693,0.0104409 -0.0693189,0.0133622 0.00876772,0.018374 0.0187913,0.0384173 0.0300669,0.0605512 0.0108583,0.0217126 0.0221299,0.0438465 0.0342402,0.0663937 0.0116929,0.0225512 0.0238031,0.0451024 0.0359134,0.0676496 0.0121102,0.0225512 0.0242205,0.0438465 0.0354961,0.0634724 0.0108543,0.0200433 0.020878,0.0375827 0.0292283,0.0521969 0.00835039,0.0150354 0.0154528,0.0283976 0.0221339,0.0405079 0.0066811,0.0116929 0.0125276,0.0225472 0.0179528,0.0321535 0.00501181,0.0100197 0.0100236,0.019626 0.0150354,0.0296496l0.00375591 0c0.0233858,-0.038 0.0455197,-0.0751654 0.066815,-0.111079 0.0217126,-0.0363307 0.0413425,-0.0697362 0.0592953,-0.10022 0.0179567,-0.0304843 0.0334094,-0.057626 0.0467717,-0.0814291 0.0137795,-0.0233819 0.0242205,-0.0421732 0.0313189,-0.0559567 0.00626378,-0.0121063 0.010437,-0.0212953 0.0133622,-0.0283937 0.00250394,-0.0066811 0.00375591,-0.0125276 0.00375591,-0.017122 0,-0.00501181 -0.00166929,-0.00876772 -0.00584252,-0.0121102 -0.00375984,-0.00333858 -0.0104409,-0.00584646 -0.0200472,-0.00793307 -0.00960236,-0.00208661 -0.0225472,-0.00375984 -0.0384173,-0.00542913 -0.0162835,-0.00125197 -0.036748,-0.00292126 -0.0617992,-0.00501181l0.0246339 -0.0551181c0.00334252,0.000834646 0.0112756,0.00166929 0.0242205,0.00250394 0.0129449,0.000834646 0.0279803,0.00166929 0.0450984,0.00250394 0.017122,0.000838583 0.0346614,0.00125591 0.0534528,0.00167323 0.018374,0.000417323 0.0346575,0.000834646 0.0492756,0.000834646 0.0175354,0 0.0363268,-0.000417323 0.0567913,-0.00125197 0.0204606,-0.000834646 0.039252,-0.00167323 0.0567913,-0.00250787 0.0175354,-0.000834646 0.0325709,-0.00166929 0.0450984,-0.00292126 0.0125276,-0.000834646 0.019626,-0.00166929 0.0217126,-0.00208661 0,0.00417323 -0.000834646,0.00960236 -0.00208661,0.0162835 -0.00166929,0.0066811 -0.00626378,0.0137795 -0.0146181,0.020878 -0.00876772,0.00709843 -0.0217126,0.0137835 -0.0396693,0.019626 -0.0179567,0.00626378 -0.0430118,0.0104409 -0.076,0.0129488 -0.0329882,0.0463504 -0.0714055,0.103142 -0.115669,0.169953 -0.0442638,0.0663976 -0.0927047,0.145319 -0.144902,0.236354 -0.00709843,0.0121102 -0.0133622,0.0229646 -0.018374,0.0321535 -0.00459449,0.00918504 -0.00876772,0.0179567 -0.0125276,0.0263071 -0.00333858,0.00835039 -0.00584646,0.0167047 -0.00793307,0.0250551 -0.00166929,0.00835039 -0.0029252,0.0179567 -0.00417717,0.028811 -0.000834646,0.0104409 -0.00166929,0.0233858 -0.00166929,0.0375827 -0.000417323,0.0142008 -0.000417323,0.0313189 -0.000417323,0.0513661 0,0.0217126 0,0.0430079 0.000417323,0.0630551 0,0.019626 0.000417323,0.038 0.000417323,0.0547008 0.000417323,0.0162874 0.000417323,0.0309016 0.000834646,0.0434291 0.000417323,0.0129449 0.00125197,0.0229685 0.00208661,0.0300669 0.00125591,0.0112756 0.0029252,0.0200433 0.00542913,0.0271417 0.00250787,0.0066811 0.00918898,0.0125276 0.0200433,0.0167047 0.0112756,0.00417323 0.0279803,0.00751575 0.0513661,0.0100197 0.0229646,0.00250787 0.0555354,0.00501181 0.0981299,0.00751575l-0.0246378 0.0572126c-0.00459055,-0.00042126 -0.0137795,-0.000838583 -0.0279764,-0.00209055 -0.0137795,-0.000834646 -0.0313189,-0.00208661 -0.0526181,-0.00333858 -0.0212953,-0.00125591 -0.0455157,-0.00209055 -0.0722402,-0.0029252 -0.0271417,-0.000834646 -0.055122,-0.00125197 -0.085185,-0.00125197 -0.0321535,0 -0.0622205,0.000417323 -0.0906181,0.00166929 -0.0283937,0.000834646 -0.0534488,0.00209055 -0.074748,0.00334252 -0.0212953,0.00125197 -0.0384173,0.00250394 -0.0517795,0.00375591 -0.0129449,0.000838583 -0.0204606,0.00167323 -0.0217126,0.00209055 0,-0.00334252 0.000417323,-0.00877165 0.00208661,-0.0158701 0.00166929,-0.00751575 0.00751575,-0.0146142 0.017122,-0.0217126 0.0100197,-0.00751575 0.0254724,-0.0146181 0.0467677,-0.0208819 0.0217165,-0.0066811 0.0522008,-0.0112717 0.0914528,-0.0133622 0.00125197,-0.0154488 0.00250394,-0.0329882 0.00333858,-0.0530315 0.000834646,-0.0204606 0.00125197,-0.0409213 0.00167323,-0.0622205 0.000417323,-0.0212953 0.000834646,-0.0417559 0.000834646,-0.0622205 0.000417323,-0.0204606 0.000417323,-0.0388346 0.000417323,-0.0551181z"/>
  <path class="fil5" d="M10.5886 1.77576c0.0304843,0 0.0534528,0.00793307 0.0684843,0.0238031 0.0150354,0.0158661 0.0225512,0.0384173 0.0225512,0.068063 0,0.0317362 -0.00835433,0.056374 -0.0254724,0.0743307 -0.017122,0.0179567 -0.0417598,0.0271417 -0.0734961,0.0271417 -0.0292283,0 -0.0521969,-0.00793307 -0.0684843,-0.0242205 -0.0162835,-0.0162835 -0.0246378,-0.039252 -0.0246378,-0.069315 0,-0.0321575 0.00918898,-0.0572126 0.0271457,-0.0743307 0.0179567,-0.017122 0.0425906,-0.0254724 0.0739094,-0.0254724zm0 -0.491913c0.0304843,0 0.0534528,0.00793307 0.0684843,0.0238031 0.0150354,0.0158661 0.0225512,0.0384173 0.0225512,0.0680669 0,0.0317362 -0.00835433,0.0563701 -0.0254724,0.0743268 -0.017122,0.0179567 -0.0417598,0.0271457 -0.0734961,0.0271457 -0.0292283,0 -0.0521969,-0.00793701 -0.0684843,-0.0242205 -0.0162835,-0.0162874 -0.0246378,-0.039252 -0.0246378,-0.0693189 0,-0.0321535 0.00918898,-0.0572087 0.0271457,-0.0743307 0.0179567,-0.017122 0.0425906,-0.0254724 0.0739094,-0.0254724z"/>
  <line class="fil2 str1" x1="5.44828" y1="3.35512" x2="8.88031" y2= "3.35512" />
 </g>
</svg>
